<svg xmlns="http://www.w3.org/2000/svg" xmlns:xlink="http://www.w3.org/1999/xlink" version="1.1" x="0px" y="0px" viewBox="0 0 2000 2000" enable-background="new 0 0 2000 2000" xml:space="preserve" style="background-color: rgb(252, 229, 203); opacity: 1; width: 208px; height: 208px;" width="2000" height="2000">
<g id="mainImg_003546c6-a320-40e0-9a41-77ef55369d5a_0864197f-a21b-4576-89cd-d9ab2ab976b2_7ae915c5-dc3f-4668-bdc5-564f8a91ed1d" transform="matrix(1,0,0,1,0,-1)"><rect width="549px" height="549px" fill="none" x="731.4" y="622.7" id="954e8c07-704a-4072-bc1b-5e68c0225eb0_4308b916-563e-429e-979a-3bcff7e41286_68e696c2-8467-4436-bb79-2eb0727bf4a9"></rect><svg xmlns="http://www.w3.org/2000/svg" version="1.1" viewBox="0.00 0.00 271.00 271.00" id="clone_7c05820a-fd2f-43c5-824b-9495d3bc9aeb_b37c8e41-ebc8-4d01-84a1-dd320e6ed9eb_21509b77-c9b6-4e67-b677-1715d893a110" width="549px" height="549px" x="731.4" y="622.7">
    <g xmlns="http://www.w3.org/2000/svg" stroke-width="2.00" fill="none" stroke-linecap="butt" ><path stroke="#946325" vector-effect="non-scaling-stroke" d="   M 151.04 15.50   L 150.88 15.75   Q 150.69 16.04 150.56 15.72   Q 149.80 13.90 147.96 13.19   Q 147.82 13.13 147.85 13.29   Q 147.89 13.46 148.03 13.57   Q 148.32 13.79 148.00 13.76   L 147.21 13.70   A 0.52 0.51 88.6 0 0 146.66 14.28   C 147.10 17.61 149.86 29.12 144.75 29.29" id="clone_b675b0a5-63ce-4afb-82f9-ddc21024d543_86e7830d-104d-471d-8f2a-e9e1d8cc884f_28057770-fcae-4815-82a7-2e8bcbda74d9"></path><path stroke="#c3954f" vector-effect="non-scaling-stroke" d="   M 144.75 29.29   L 136.75 16.42   A 0.55 0.54 -43.3 0 0 135.84 16.40   Q 121.10 37.50 107.54 59.00" id="clone_a0af4674-16a1-4509-836f-1ad852f41f11_5bf45f42-4da0-4581-9662-3cb0f815586d_f9b88d7f-168e-45ac-becc-9f4582c05ab3"></path><path stroke="#946325" vector-effect="non-scaling-stroke" d="   M 107.54 59.00   C 103.83 57.72 100.38 58.21 99.12 53.54   Q 98.99 53.06 98.51 52.90   Q 97.40 52.53 96.25 53.21" id="clone_ad73ad2a-2cd0-43dc-a8be-24ef125e5d27_31fcb86f-c888-4838-b28f-c93a899f7e07_77268cd3-726c-42c4-a6de-11c399019bdd"></path><path stroke="#cd9f55" vector-effect="non-scaling-stroke" d="   M 247.25 86.29   C 243.65 81.02 232.85 67.09 226.43 66.19" id="clone_f269ec7d-cd08-4b05-829a-58ffdfb28992_6922e317-8f0c-4a10-b30b-41c9e5cd76e1_eb1ad074-99ec-4210-bd09-da24d090cd75"></path><path stroke="#8e5d22" vector-effect="non-scaling-stroke" d="   M 226.43 66.19   Q 219.18 64.68 213.55 67.56   Q 209.74 69.51 207.71 69.82" id="clone_2ff16bcb-a1c8-4f1a-9aea-0fd2cbb94094_cf34eedd-8570-451d-babf-eedc3581fbd5_a91ec6e7-30ec-4c8f-9516-f6beda064561"></path><path stroke="#946325" vector-effect="non-scaling-stroke" d="   M 177.17 81.57   L 169.18 70.80" id="clone_7ebc40d7-b616-4bfd-8922-e95e2c0383d2_695b075d-2416-4263-a3fc-ad9274407b37_977fdb1e-c0d9-49cc-be5d-1393e4936fac"></path><path stroke="#cd9f55" vector-effect="non-scaling-stroke" d="   M 169.18 70.80   C 169.92 70.69 169.90 69.76 169.64 69.34   Q 157.32 49.24 144.75 29.29" id="clone_c7ced0c5-5016-4dea-ba0b-4b99ce95a782_2cd4a457-dfe7-405b-ad9d-4bf7e8dbafa5_39e980f4-dd2b-4791-a68b-6798368d0e4c"></path><path stroke="#c3954f" vector-effect="non-scaling-stroke" d="   M 169.18 70.80   C 164.84 68.31 158.93 67.87 156.14 63.59   Q 146.59 48.90 136.05 34.56   A 0.85 0.85 0.0 0 0 134.69 34.55   Q 120.23 53.88 104.58 72.72" id="clone_555b437e-9c98-4139-8219-55176b3ce66d_6f0867da-03d8-4a41-aee3-391b216f80e8_8dee1959-bb5e-4e26-ba16-851c4862572e"></path><path stroke="#cd9f55" vector-effect="non-scaling-stroke" d="   M 104.58 72.72   Q 102.46 71.18 101.49 69.56   Q 101.23 69.12 101.50 68.68   L 107.54 59.00" id="clone_f7e6c4db-f0bd-4e13-bca7-e4c7adc67b8b_356a2ea4-b1d1-4241-8b61-07da7eafbae0_c36e0b8d-18b4-4a01-b0e3-ed19a5260f40"></path><path stroke="#84531c" vector-effect="non-scaling-stroke" d="   M 178.79 87.25   L 177.96 89.75" id="clone_0dc94172-e533-43cb-8735-f86b286b0a6f_f84c9aa1-9f5f-4da5-b607-de4b735535d7_32e15cb1-6351-4094-8719-bf05ee24b22b"></path><path stroke="#c5a111" vector-effect="non-scaling-stroke" d="   M 177.96 89.75   C 175.17 79.65 165.72 68.87 153.83 70.18   C 150.05 70.60 145.93 72.64 148.16 77.14   Q 151.72 84.34 155.56 91.50   A 0.37 0.36 -14.7 0 1 155.24 92.04   L 144.10 92.29   A 0.60 0.59 -87.8 0 1 143.50 91.64   C 144.19 84.77 146.68 77.61 143.79 70.74   Q 139.47 60.48 136.75 49.61   A 0.32 0.32 0.0 0 0 136.12 49.66   Q 135.85 52.76 136.16 56.00   Q 137.66 71.75 137.14 87.77   Q 137.12 88.36 136.54 88.39   L 88.43 90.82   Q 87.97 90.84 87.64 90.51   L 87.31 90.18   Q 86.98 89.86 87.36 89.59   Q 88.30 88.92 87.49 88.14" id="clone_2eb9d2a6-8e5b-47a9-9836-619dacd12030_5bd3809b-ac9b-46c1-a6a8-e5842fa52202_5ff67ae5-8db9-4656-911a-9deae23ef6e1"></path><path stroke="#946325" vector-effect="non-scaling-stroke" d="   M 96.04 82.52   Q 101.51 78.93 104.58 72.72" id="clone_7cdaf34d-3830-4d3e-82d8-a14bdc47c576_0dc2807d-703b-4724-81ae-9ac8bb4847ba_d3896e85-a49a-4339-b5a8-5bd86c1551be"></path><path stroke="#be9b0e" vector-effect="non-scaling-stroke" d="   M 177.96 89.75   C 179.53 98.14 177.74 107.40 170.40 112.65   C 165.03 116.48 159.23 112.26 155.54 107.75" id="clone_7f608e9d-f08f-45c4-b3d8-f7174a7bd121_18d1800f-9c0f-4cc1-b78c-fb6d8ac30878_76d69f00-dd7b-4620-9efc-f30fc60dcf05"></path><path stroke="#ab900c" vector-effect="non-scaling-stroke" d="   M 155.54 107.75   Q 152.20 103.22 151.97 97.49   Q 151.95 97.00 151.45 97.00   L 143.23 97.00   Q 142.51 97.00 142.62 97.72   L 144.54 109.50" id="clone_cbd4ecfa-b196-428c-b66b-e58a0c1c9913_c715b9e9-81ad-4174-9b2c-76b788d79a8b_6d4dab5a-68c0-44b5-953c-426957a54435"></path><path stroke="#be9b0e" vector-effect="non-scaling-stroke" d="   M 144.54 109.50   C 140.61 126.51 140.77 143.27 140.16 160.58   Q 140.14 161.00 139.78 161.22   L 139.40 161.44   Q 138.93 161.72 138.95 161.17   C 139.87 140.59 138.38 121.03 137.31 96.82   Q 137.29 96.34 136.81 96.29   L 87.31 92.00" id="clone_1ec8eb0b-34e5-44f3-8cbf-39a65baa987f_0ab57fb9-322c-4665-b2df-0a1f089f2b3c_9bbf834d-71f0-41a8-a8e8-4cb54dbd0c1e"></path><path stroke="#8e5d22" vector-effect="non-scaling-stroke" d="   M 64.01 70.00   Q 56.38 66.73 48.19 65.30   Q 47.70 65.21 47.48 64.77   L 44.75 59.15   Q 44.55 58.75 44.25 58.42   L 41.75 55.71" id="clone_eb9fb3fe-f921-453f-a6ec-ae102d1f4a50_e648f26c-e276-4286-8acc-e7e9d8749205_fe0442fb-cffc-466b-830d-29aa8a8197df"></path><path stroke="#bc8f4c" vector-effect="non-scaling-stroke" d="   M 226.43 66.19   Q 223.68 74.78 218.31 84.31   Q 188.00 138.11 156.96 191.50" id="clone_578e4cb8-2bc7-40e7-ae60-b88d8058bca8_42fadbe1-8711-4a1e-b6d7-7575b39bb543_d2a0cc09-3297-498d-8824-ad0a25b7e5d8"></path><path stroke="#a1783c" stroke-opacity="0.902" vector-effect="non-scaling-stroke" d="   M 156.96 191.50   L 155.25 194.71" id="clone_3a8d9d9e-d2bd-4f58-b7e9-5f4745fab8c9_ec1235d6-f8b1-4ab8-bfdc-bb45e9cabf30_ec878bd3-92fe-4f2d-a1f0-fe13fcfeb682"></path><path stroke="#825a28" stroke-opacity="0.776" vector-effect="non-scaling-stroke" d="   M 155.25 194.71   L 144.00 213.21" id="clone_09d4aa7c-6101-4cc8-a3f2-d6d4609d231f_6d97e0dc-bf5f-4463-8caf-359a78ae6497_f2f00f0d-d774-49fd-bd09-04677aad5344"></path><path stroke="#744818" stroke-opacity="0.553" vector-effect="non-scaling-stroke" d="   M 144.00 213.21   L 137.72 221.03   A 2.24 2.24 0.0 0 1 134.59 221.39   Q 131.97 219.32 129.57 215.68   Q 123.36 206.27 116.96 197.00" id="clone_ce9f18c6-adde-464a-9dfe-497bca747920_35a4c4a9-bc85-4fd4-8c3b-a752dc2f30b8_82cdc166-24e9-46ba-98c1-6b90400a2b42"></path><path stroke="#825a28" stroke-opacity="0.776" vector-effect="non-scaling-stroke" d="   M 116.96 197.00   L 114.75 192.71" id="clone_5fc0333f-2a7c-43e8-9411-c8ca6457f288_def1a7f0-4ba1-4699-ab3d-8eaaab97d78f_c837f1ea-fc78-47a1-8cf1-9bc5b42f9046"></path><path stroke="#b37f31" stroke-opacity="0.988" vector-effect="non-scaling-stroke" d="   M 114.75 192.71   L 78.00 128.71" id="clone_d5b564ee-41c7-424d-8876-89d4369a4a0c_18f5078f-e668-425b-a47c-9e2c2e1e5792_fe13d68a-53ad-47c1-8236-268b6a7a2760"></path><path stroke="#a66b15" vector-effect="non-scaling-stroke" d="   M 78.00 128.71   Q 63.42 102.35 49.22 75.79   Q 46.91 71.48 45.21 67.09   A 0.60 0.60 0.0 0 0 44.34 66.80   Q 33.67 73.40 26.43 83.39   C 25.75 84.33 24.99 84.60 23.96 85.00" id="clone_8bf40c0a-3a1d-433f-bd42-8ff997633e7f_6e247bd0-58ce-46f5-8a7f-631632fea53e_09e32810-ec5a-4108-8997-361282c7575e"></path><path stroke="#bc8f4c" vector-effect="non-scaling-stroke" d="   M 246.50 88.93   Q 240.91 80.06 232.23 75.34   Q 231.55 74.97 231.84 75.69   C 232.39 77.07 224.38 90.80 223.17 92.92   Q 193.37 144.72 163.54 196.50" id="clone_285592e0-7415-4138-b41b-6ed7f33a1334_1c7fa661-a6bf-48a7-b113-713c89fa2af9_db583acf-5e0f-47e7-9f6e-99cf7d9747ba"></path><path stroke="#e7c074" stroke-opacity="0.902" vector-effect="non-scaling-stroke" d="   M 163.54 196.50   L 163.77 194.27   Q 163.83 193.73 163.44 193.36   Q 161.93 191.92 160.23 193.03   Q 159.79 193.31 159.27 193.22   Q 158.45 193.07 158.26 192.23   Q 158.16 191.79 157.71 191.77   Q 157.27 191.75 156.96 191.50" id="clone_42478659-0a04-4cf3-bfcb-72078c23befc_64c3a7c0-7fd1-4073-8abd-00f3911e156e_e4802360-2450-45bb-86d5-1e434aa56cd9"></path><path stroke="#dd9d2c" stroke-opacity="0.988" vector-effect="non-scaling-stroke" d="   M 78.00 128.71   C 74.54 129.63 74.53 132.64 71.71 133.75" id="clone_37d16a73-e343-4190-a739-72b8999e1720_2d8cb366-9266-46a9-91b9-080dc97a2af0_482283b2-8488-42bf-93f6-5dd8209790d3"></path><path stroke="#a66b15" vector-effect="non-scaling-stroke" d="   M 71.71 133.75   L 38.75 75.67   A 0.71 0.71 0.0 0 0 37.78 75.40   Q 29.95 79.85 25.68 87.68   Q 25.48 88.05 25.04 88.00" id="clone_29f1021b-1928-4c0e-829a-d920919b2d77_0aae010a-51b8-4665-8e17-336f607bfd92_1bd1bbf5-aef9-40f1-9d44-14aa1bd1a86f"></path><path stroke="#b37f31" stroke-opacity="0.988" vector-effect="non-scaling-stroke" d="   M 71.71 133.75   L 106.47 193.89" id="clone_71b9decf-25e1-42b7-9ff7-2b76a8389ac8_ca13583d-62f1-431e-bb7b-6a1bb78941bb_bb88de34-4129-4fff-862c-1835c500d6e7"></path><path stroke="#825a28" stroke-opacity="0.776" vector-effect="non-scaling-stroke" d="   M 106.47 193.89   L 108.71 197.00" id="clone_4bf57cd4-eda3-4d2f-b1d0-dad94793ac0b_19383990-6901-411f-817d-caf6b9a77e0d_854b88eb-3580-4466-a964-ad63b9ccaf15"></path><path stroke="#744818" stroke-opacity="0.553" vector-effect="non-scaling-stroke" d="   M 108.71 197.00   Q 120.74 221.23 135.22 242.99   Q 136.06 244.25 136.85 242.96   Q 144.97 229.73 151.62 216.76" id="clone_e92b443d-9316-46b0-ae9e-c2627f6a011c_27b15080-801b-432f-a89c-3706ce26f0e2_69707e62-1a73-4b3f-8faa-3353fa5420f9"></path><path stroke="#825a28" stroke-opacity="0.776" vector-effect="non-scaling-stroke" d="   M 151.62 216.76   L 153.17 213.54   Q 153.30 213.26 153.62 213.26   C 154.31 213.27 154.14 213.20 154.37 212.64   Q 157.11 206.16 161.29 200.50" id="clone_ca3ea748-cd37-448c-a380-b3ada0371f02_6a41afe4-a3aa-41d4-8994-6a7c6d88ab8f_8730e2cd-92bb-4c66-aca7-b3ad9c7dd0d1"></path><path stroke="#a1783c" stroke-opacity="0.902" vector-effect="non-scaling-stroke" d="   M 161.29 200.50   L 163.54 196.50" id="clone_d6f39881-a9e1-45f1-8c18-283ce327fe8c_181b815e-0bf0-49d1-acfc-3c2c5c9d5db6_cefb328a-c81e-4080-84c4-489cd4a6946e"></path><path stroke="#6a4217" vector-effect="non-scaling-stroke" d="   M 144.54 109.50   C 149.97 111.33 152.60 115.69 159.37 116.93   Q 159.91 117.03 160.25 116.59   L 161.08 115.50   Q 161.22 115.31 161.02 115.20   L 155.47 112.08   Q 155.01 111.82 155.08 111.29   L 155.54 107.75" id="clone_6a50d99d-2fac-4b24-9fdc-8ef3e64f9fc5_b4171a45-ae30-4775-8a00-e900501358a9_0e918b6b-01f8-4d8e-8f3d-f96544d5e4f2"></path></g><path xmlns="http://www.w3.org/2000/svg" fill="#8a591e" d="   M 132.56 0.00   L 139.63 0.00   Q 146.57 6.76 151.04 15.50   L 150.88 15.75   Q 150.69 16.04 150.56 15.72   Q 149.80 13.90 147.96 13.19   Q 147.82 13.13 147.85 13.29   Q 147.89 13.46 148.03 13.57   Q 148.32 13.79 148.00 13.76   L 147.21 13.70   A 0.52 0.51 88.6 0 0 146.66 14.28   C 147.10 17.61 149.86 29.12 144.75 29.29   L 136.75 16.42   A 0.55 0.54 -43.3 0 0 135.84 16.40   Q 121.10 37.50 107.54 59.00   C 103.83 57.72 100.38 58.21 99.12 53.54   Q 98.99 53.06 98.51 52.90   Q 97.40 52.53 96.25 53.21   Q 112.28 27.76 128.31 2.31   Q 129.34 0.67 132.56 0.00   Z" id="clone_bab2c726-a0bd-45d5-8443-fbd7a1167011_a1af4852-a05b-4c8e-a266-011924a987e1_75df74f8-0826-4720-abed-bdc982a12baa"></path><path xmlns="http://www.w3.org/2000/svg" fill="#9e6d2b" d="   M 151.04 15.50   Q 165.29 37.12 179.00 59.10   C 179.71 60.24 180.24 62.11 181.75 62.94   Q 182.23 63.21 182.75 63.01   C 197.15 57.51 209.78 53.43 222.00 51.20   C 224.66 50.71 227.11 53.90 228.71 55.48   Q 229.08 55.84 229.58 55.89   C 245.86 57.52 255.82 70.60 247.25 86.29   C 243.65 81.02 232.85 67.09 226.43 66.19   Q 219.18 64.68 213.55 67.56   Q 209.74 69.51 207.71 69.82   Q 191.87 74.18 177.17 81.57   L 169.18 70.80   C 169.92 70.69 169.90 69.76 169.64 69.34   Q 157.32 49.24 144.75 29.29   C 149.86 29.12 147.10 17.61 146.66 14.28   A 0.52 0.51 88.6 0 1 147.21 13.70   L 148.00 13.76   Q 148.32 13.79 148.03 13.57   Q 147.89 13.46 147.85 13.29   Q 147.82 13.13 147.96 13.19   Q 149.80 13.90 150.56 15.72   Q 150.69 16.04 150.88 15.75   L 151.04 15.50   Z" id="clone_f49420a4-7b9f-4dfc-a258-9b757a0781bc_83e1ea8f-50a8-4c30-a061-09e65101e12f_4d7e51c7-64fe-4319-8687-92ad0603bb34"></path><path xmlns="http://www.w3.org/2000/svg" fill="#fbd07f" d="   M 144.75 29.29   Q 157.32 49.24 169.64 69.34   C 169.90 69.76 169.92 70.69 169.18 70.80   C 164.84 68.31 158.93 67.87 156.14 63.59   Q 146.59 48.90 136.05 34.56   A 0.85 0.85 0.0 0 0 134.69 34.55   Q 120.23 53.88 104.58 72.72   Q 102.46 71.18 101.49 69.56   Q 101.23 69.12 101.50 68.68   L 107.54 59.00   Q 121.10 37.50 135.84 16.40   A 0.55 0.54 -43.3 0 1 136.75 16.42   L 144.75 29.29   Z" id="clone_a5915828-01f9-48fc-b647-0844e542205e_2a0af3ad-23e2-4ad7-a1ed-8554591564df_f71f7074-3540-444e-8803-c3b26f62727a"></path><path xmlns="http://www.w3.org/2000/svg" fill="#8a591e" d="   M 169.18 70.80   L 177.17 81.57   L 178.79 87.25   L 177.96 89.75   C 175.17 79.65 165.72 68.87 153.83 70.18   C 150.05 70.60 145.93 72.64 148.16 77.14   Q 151.72 84.34 155.56 91.50   A 0.37 0.36 -14.7 0 1 155.24 92.04   L 144.10 92.29   A 0.60 0.59 -87.8 0 1 143.50 91.64   C 144.19 84.77 146.68 77.61 143.79 70.74   Q 139.47 60.48 136.75 49.61   A 0.32 0.32 0.0 0 0 136.12 49.66   Q 135.85 52.76 136.16 56.00   Q 137.66 71.75 137.14 87.77   Q 137.12 88.36 136.54 88.39   L 88.43 90.82   Q 87.97 90.84 87.64 90.51   L 87.31 90.18   Q 86.98 89.86 87.36 89.59   Q 88.30 88.92 87.49 88.14   Q 92.20 86.06 96.04 82.52   Q 101.51 78.93 104.58 72.72   Q 120.23 53.88 134.69 34.55   A 0.85 0.85 0.0 0 1 136.05 34.56   Q 146.59 48.90 156.14 63.59   C 158.93 67.87 164.84 68.31 169.18 70.80   Z" id="clone_a0ac41ca-8176-41a7-8736-9720f1e69ad9_8361923d-921b-4b4d-aaaf-e587a8032659_3f53114b-1d37-415d-8f7b-1fa9c136738f"></path><path xmlns="http://www.w3.org/2000/svg" fill="#ffe803" d="   M 177.96 89.75   C 179.53 98.14 177.74 107.40 170.40 112.65   C 165.03 116.48 159.23 112.26 155.54 107.75   Q 152.20 103.22 151.97 97.49   Q 151.95 97.00 151.45 97.00   L 143.23 97.00   Q 142.51 97.00 142.62 97.72   L 144.54 109.50   C 140.61 126.51 140.77 143.27 140.16 160.58   Q 140.14 161.00 139.78 161.22   L 139.40 161.44   Q 138.93 161.72 138.95 161.17   C 139.87 140.59 138.38 121.03 137.31 96.82   Q 137.29 96.34 136.81 96.29   L 87.31 92.00   Q 84.27 90.44 87.49 88.14   Q 88.30 88.92 87.36 89.59   Q 86.98 89.86 87.31 90.18   L 87.64 90.51   Q 87.97 90.84 88.43 90.82   L 136.54 88.39   Q 137.12 88.36 137.14 87.77   Q 137.66 71.75 136.16 56.00   Q 135.85 52.76 136.12 49.66   A 0.32 0.32 0.0 0 1 136.75 49.61   Q 139.47 60.48 143.79 70.74   C 146.68 77.61 144.19 84.77 143.50 91.64   A 0.60 0.59 -87.8 0 0 144.10 92.29   L 155.24 92.04   A 0.37 0.36 -14.7 0 0 155.56 91.50   Q 151.72 84.34 148.16 77.14   C 145.93 72.64 150.05 70.60 153.83 70.18   C 165.72 68.87 175.17 79.65 177.96 89.75   Z" id="clone_26e4b20f-d978-4adb-bcb1-1e0e5e1aa793_920ec84e-b1d0-4f57-b26b-db6b03a5ad10_4380074b-340f-4395-9148-1a17bea5e5b2"></path><path xmlns="http://www.w3.org/2000/svg" fill="#9e6d2b" d="   M 96.25 53.21   Q 97.40 52.53 98.51 52.90   Q 98.99 53.06 99.12 53.54   C 100.38 58.21 103.83 57.72 107.54 59.00   L 101.50 68.68   Q 101.23 69.12 101.49 69.56   Q 102.46 71.18 104.58 72.72   Q 101.51 78.93 96.04 82.52   Q 80.26 75.69 64.01 70.00   Q 56.38 66.73 48.19 65.30   Q 47.70 65.21 47.48 64.77   L 44.75 59.15   Q 44.55 58.75 44.25 58.42   L 41.75 55.71   C 45.49 49.31 51.52 51.28 57.96 53.11   Q 73.51 57.54 87.82 62.67   A 2.28 2.27 -63.2 0 0 90.49 61.79   L 96.25 53.21   Z" id="clone_3d34038f-6c8f-4565-bd9d-7225d8032dab_f5babc35-bffb-44fe-839d-afb9f0d7404f_a05b4348-0098-4ba8-9313-f663175419ff"></path><path xmlns="http://www.w3.org/2000/svg" fill="#7d4d19" d="   M 41.75 55.71   L 44.25 58.42   Q 44.55 58.75 44.75 59.15   L 47.48 64.77   Q 47.70 65.21 48.19 65.30   Q 56.38 66.73 64.01 70.00   Q 63.51 71.19 64.28 72.51   C 84.49 107.11 110.45 154.30 134.77 194.54   A 1.71 1.71 0.0 0 0 137.70 194.53   C 161.48 154.65 185.30 114.57 207.81 73.79   Q 208.92 71.78 207.71 69.82   Q 209.74 69.51 213.55 67.56   Q 219.18 64.68 226.43 66.19   Q 223.68 74.78 218.31 84.31   Q 188.00 138.11 156.96 191.50   L 155.25 194.71   L 144.00 213.21   L 137.72 221.03   A 2.24 2.24 0.0 0 1 134.59 221.39   Q 131.97 219.32 129.57 215.68   Q 123.36 206.27 116.96 197.00   L 114.75 192.71   L 78.00 128.71   Q 63.42 102.35 49.22 75.79   Q 46.91 71.48 45.21 67.09   A 0.60 0.60 0.0 0 0 44.34 66.80   Q 33.67 73.40 26.43 83.39   C 25.75 84.33 24.99 84.60 23.96 85.00   C 16.22 69.35 26.13 57.39 41.75 55.71   Z" id="clone_9e6265cb-5c9f-46cf-a057-489dc5cbf9c1_8772ebc3-8d76-4e65-ad21-e721145b6197_d69371a2-a620-407e-a547-2c11b6a86567"></path><path xmlns="http://www.w3.org/2000/svg" fill="#fbd07f" d="   M 247.25 86.29   L 246.50 88.93   Q 240.91 80.06 232.23 75.34   Q 231.55 74.97 231.84 75.69   C 232.39 77.07 224.38 90.80 223.17 92.92   Q 193.37 144.72 163.54 196.50   L 163.77 194.27   Q 163.83 193.73 163.44 193.36   Q 161.93 191.92 160.23 193.03   Q 159.79 193.31 159.27 193.22   Q 158.45 193.07 158.26 192.23   Q 158.16 191.79 157.71 191.77   Q 157.27 191.75 156.96 191.50   Q 188.00 138.11 218.31 84.31   Q 223.68 74.78 226.43 66.19   C 232.85 67.09 243.65 81.02 247.25 86.29   Z" id="clone_57c98300-5897-45d7-b660-89a59be4df51_84282bd1-12e8-4203-bc2d-66adde9e0032_2464e44a-3bdd-4443-832c-45446b62968a"></path><path xmlns="http://www.w3.org/2000/svg" fill="#cf8910" d="   M 78.00 128.71   C 74.54 129.63 74.53 132.64 71.71 133.75   L 38.75 75.67   A 0.71 0.71 0.0 0 0 37.78 75.40   Q 29.95 79.85 25.68 87.68   Q 25.48 88.05 25.04 88.00   L 23.96 85.00   C 24.99 84.60 25.75 84.33 26.43 83.39   Q 33.67 73.40 44.34 66.80   A 0.60 0.60 0.0 0 1 45.21 67.09   Q 46.91 71.48 49.22 75.79   Q 63.42 102.35 78.00 128.71   Z" id="clone_56059dbb-625d-43d7-b817-bd6abe96124e_14876b52-fbd5-464e-8851-7386d2d825b9_b4005713-3e9e-4b32-9961-523d3ebdaad2"></path><path xmlns="http://www.w3.org/2000/svg" fill="#7d4d19" d="   M 246.50 88.93   C 232.92 111.49 220.08 134.48 206.61 157.08   Q 172.63 214.09 138.84 271.00   L 132.57 271.00   Q 79.15 180.33 25.28 89.71   Q 24.98 89.20 25.04 88.00   Q 25.48 88.05 25.68 87.68   Q 29.95 79.85 37.78 75.40   A 0.71 0.71 0.0 0 1 38.75 75.67   L 71.71 133.75   L 106.47 193.89   L 108.71 197.00   Q 120.74 221.23 135.22 242.99   Q 136.06 244.25 136.85 242.96   Q 144.97 229.73 151.62 216.76   L 153.17 213.54   Q 153.30 213.26 153.62 213.26   C 154.31 213.27 154.14 213.20 154.37 212.64   Q 157.11 206.16 161.29 200.50   L 163.54 196.50   Q 193.37 144.72 223.17 92.92   C 224.38 90.80 232.39 77.07 231.84 75.69   Q 231.55 74.97 232.23 75.34   Q 240.91 80.06 246.50 88.93   Z" id="clone_4ce84e86-27be-41a8-8c4c-1d4a309517eb_27a7aebd-d497-4faa-8c87-e381f323db5a_9a8a7b92-1176-46a2-92bf-b1fbfa54727d"></path><path xmlns="http://www.w3.org/2000/svg" fill="#7d4d19" d="   M 178.79 87.25   C 181.94 97.59 179.49 109.58 169.87 115.43   Q 166.03 117.76 163.78 121.79   Q 155.48 136.65 139.54 167.54   C 138.32 169.90 136.16 169.05 135.00 167.16   Q 117.91 139.38 106.67 120.33   Q 97.67 105.09 87.31 92.00   L 136.81 96.29   Q 137.29 96.34 137.31 96.82   C 138.38 121.03 139.87 140.59 138.95 161.17   Q 138.93 161.72 139.40 161.44   L 139.78 161.22   Q 140.14 161.00 140.16 160.58   C 140.77 143.27 140.61 126.51 144.54 109.50   C 149.97 111.33 152.60 115.69 159.37 116.93   Q 159.91 117.03 160.25 116.59   L 161.08 115.50   Q 161.22 115.31 161.02 115.20   L 155.47 112.08   Q 155.01 111.82 155.08 111.29   L 155.54 107.75   C 159.23 112.26 165.03 116.48 170.40 112.65   C 177.74 107.40 179.53 98.14 177.96 89.75   L 178.79 87.25   Z" id="clone_5c2d9cbb-ee2b-45d6-b71e-53510bf80e67_3be84b5d-d344-4681-be91-98f901a65c05_f47a4c4d-455c-43ad-a909-cdc66e3ccee2"></path><path xmlns="http://www.w3.org/2000/svg" fill="#573715" d="   M 155.54 107.75   L 155.08 111.29   Q 155.01 111.82 155.47 112.08   L 161.02 115.20   Q 161.22 115.31 161.08 115.50   L 160.25 116.59   Q 159.91 117.03 159.37 116.93   C 152.60 115.69 149.97 111.33 144.54 109.50   L 142.62 97.72   Q 142.51 97.00 143.23 97.00   L 151.45 97.00   Q 151.95 97.00 151.97 97.49   Q 152.20 103.22 155.54 107.75   Z" id="clone_9e479afd-45e2-428a-b9a1-e01f1c832fe0_a0f4c898-971b-4d4b-9ced-1b7bca06b1b8_eaf497d0-c0ec-4736-b245-b36433128c88"></path><path xmlns="http://www.w3.org/2000/svg" fill="#ebb249" fill-opacity="0.976" d="   M 78.00 128.71   L 114.75 192.71   L 111.33 188.89   Q 110.99 188.50 110.47 188.50   L 108.50 188.50   Q 107.96 188.50 107.68 188.96   Q 106.44 190.95 106.47 193.89   L 71.71 133.75   C 74.53 132.64 74.54 129.63 78.00 128.71   Z" id="clone_9362ca64-fad8-413f-9912-f7981adeaf18_ae62b977-3c00-4939-a772-eeb7f8e45c83_83b60576-7cca-4017-a7b5-3ec45336ee4f"></path><path xmlns="http://www.w3.org/2000/svg" fill="#8b7242" fill-opacity="0.549" d="   M 114.75 192.71   L 116.96 197.00   Q 115.80 197.49 114.82 194.71   A 0.84 0.83 -1.3 0 0 114.26 194.18   L 110.88 193.22   Q 110.48 193.11 110.24 193.43   Q 109.04 195.02 108.71 197.00   L 106.47 193.89   Q 106.44 190.95 107.68 188.96   Q 107.96 188.50 108.50 188.50   L 110.47 188.50   Q 110.99 188.50 111.33 188.89   L 114.75 192.71   Z" id="clone_4082a938-04b3-4d89-ac90-84b93805027e_fa91851d-618f-499c-97ba-4d3c3cdf282c_baaca1e3-ffb2-4d3d-a31a-9452f1ad947b"></path><path xmlns="http://www.w3.org/2000/svg" fill="#cead67" fill-opacity="0.800" d="   M 156.96 191.50   Q 157.27 191.75 157.71 191.77   Q 158.16 191.79 158.26 192.23   Q 158.45 193.07 159.27 193.22   Q 159.79 193.31 160.23 193.03   Q 161.93 191.92 163.44 193.36   Q 163.83 193.73 163.77 194.27   L 163.54 196.50   L 161.29 200.50   Q 161.91 199.36 161.65 198.20   Q 161.51 197.60 160.90 197.71   L 157.10 198.38   Q 156.41 198.50 156.43 197.80   Q 156.48 195.82 155.25 194.71   L 156.96 191.50   Z" id="clone_b0550471-cf68-4d38-aeed-acbac24a0b41_f60ffd06-63b4-4dca-993e-1573bb99d3f4_fff1df7f-6c00-496b-92ba-ff9d982600db"></path><path xmlns="http://www.w3.org/2000/svg" fill="#1a150b" fill-opacity="0.106" d="   M 116.96 197.00   Q 123.36 206.27 129.57 215.68   Q 131.97 219.32 134.59 221.39   A 2.24 2.24 0.0 0 0 137.72 221.03   L 144.00 213.21   Q 144.95 214.95 144.30 216.89   Q 144.11 217.44 144.52 217.85   L 144.89 218.21   Q 145.47 218.80 145.74 218.01   Q 146.34 216.28 148.19 216.78   Q 148.74 216.92 149.07 216.47   Q 150.54 214.43 151.62 216.76   Q 144.97 229.73 136.85 242.96   Q 136.06 244.25 135.22 242.99   Q 120.74 221.23 108.71 197.00   Q 109.04 195.02 110.24 193.43   Q 110.48 193.11 110.88 193.22   L 114.26 194.18   A 0.84 0.83 -1.3 0 1 114.82 194.71   Q 115.80 197.49 116.96 197.00   Z" id="clone_03c80a73-9fb7-4226-90d6-19bf25b8525d_350ad614-55e4-4b80-9d92-d5b6ee0de266_b8aaf87b-faa9-4da3-b99b-e7b10071ffe0"></path><path xmlns="http://www.w3.org/2000/svg" fill="#8b7242" fill-opacity="0.549" d="   M 155.25 194.71   Q 156.48 195.82 156.43 197.80   Q 156.41 198.50 157.10 198.38   L 160.90 197.71   Q 161.51 197.60 161.65 198.20   Q 161.91 199.36 161.29 200.50   Q 157.11 206.16 154.37 212.64   C 154.14 213.20 154.31 213.27 153.62 213.26   Q 153.30 213.26 153.17 213.54   L 151.62 216.76   Q 150.54 214.43 149.07 216.47   Q 148.74 216.92 148.19 216.78   Q 146.34 216.28 145.74 218.01   Q 145.47 218.80 144.89 218.21   L 144.52 217.85   Q 144.11 217.44 144.30 216.89   Q 144.95 214.95 144.00 213.21   L 155.25 194.71   Z" id="clone_c864824f-6e3e-493a-8487-791346565870_0eebcbd1-f924-45b6-bccc-8614a57ada2d_830d4021-06c7-42f6-8d27-1a77b5ed474f"></path>
</svg></g>
</svg>
