<?xml version="1.0" standalone="no"?><!DOCTYPE svg PUBLIC "-//W3C//DTD SVG 1.1//EN" "http://www.w3.org/Graphics/SVG/1.1/DTD/svg11.dtd"><svg t="1727752591666" class="icon" viewBox="0 0 1051 1024" version="1.1" xmlns="http://www.w3.org/2000/svg" p-id="4393" width="131.375" height="128" xmlns:xlink="http://www.w3.org/1999/xlink"><path d="M727.204278 714.609626m-135.255615 0a135.255615 135.255615 0 1 0 270.51123 0 135.255615 135.255615 0 1 0-270.51123 0Z" fill="#FFE957" p-id="4394" data-spm-anchor-id="a313x.search_index.0.i0.7c823a81zfRc5T" class=""></path><path d="M779.225668 492.834225h-163.730481c-50.37861 0-91.995722-41.069519-91.995722-91.995722V237.655615c0-50.37861 41.069519-91.995722 91.995722-91.995722h163.730481c50.37861 0 91.995722 41.069519 91.995722 91.995722v163.730481c-0.547594 50.37861-41.617112 91.448128-91.995722 91.448129z m-163.730481-300.081284c-24.641711 0-44.902674 20.260963-44.902674 44.902674v163.730481c0 24.641711 20.260963 44.902674 44.902674 44.902674h163.730481c24.641711 0 44.902674-20.260963 44.902674-44.902674V237.655615c0-24.641711-20.260963-44.902674-44.902674-44.902674h-163.730481zM398.100535 867.935829H234.370053c-50.37861 0-91.995722-41.069519-91.995721-91.995722v-163.730481c0-50.37861 41.069519-91.995722 91.995721-91.995722h163.730482c50.37861 0 91.995722 41.069519 91.995722 91.995722v163.730481c0 50.926203-41.069519 91.995722-91.995722 91.995722z m-163.730482-300.628877c-24.641711 0-44.902674 20.260963-44.902673 44.902674v163.730481c0 24.641711 20.260963 44.902674 44.902673 44.902674h163.730482c24.641711 0 44.902674-20.260963 44.902674-44.902674v-163.730481c0-24.641711-20.260963-44.902674-44.902674-44.902674H234.370053zM779.225668 867.935829h-163.730481c-50.37861 0-91.995722-41.069519-91.995722-91.995722v-163.730481c0-50.37861 41.069519-91.995722 91.995722-91.995722h163.730481c50.37861 0 91.995722 41.069519 91.995722 91.995722v163.730481c-0.547594 50.926203-41.617112 91.995722-91.995722 91.995722z m-163.730481-300.628877c-24.641711 0-44.902674 20.260963-44.902674 44.902674v163.730481c0 24.641711 20.260963 44.902674 44.902674 44.902674h163.730481c24.641711 0 44.902674-20.260963 44.902674-44.902674v-163.730481c0-24.641711-20.260963-44.902674-44.902674-44.902674h-163.730481zM278.17754 342.793583H205.347594c-13.142246 0-23.546524-10.404278-23.546524-23.546524s10.404278-23.546524 23.546524-23.546524h72.829946c13.142246 0 23.546524 10.404278 23.546524 23.546524-0.547594 13.142246-10.951872 23.546524-23.546524 23.546524zM427.670588 342.793583H354.840642c-13.142246 0-23.546524-10.404278-23.546524-23.546524s10.404278-23.546524 23.546524-23.546524h72.829946c13.142246 0 23.546524 10.404278 23.546524 23.546524s-10.951872 23.546524-23.546524 23.546524z" fill="#2e3444" p-id="4395" data-spm-anchor-id="a313x.search_index.0.i3.7c823a81zfRc5T" class="selected"></path></svg>