<?xml version="1.0" standalone="no"?><!DOCTYPE svg PUBLIC "-//W3C//DTD SVG 1.1//EN" "http://www.w3.org/Graphics/SVG/1.1/DTD/svg11.dtd"><svg t="1720652525299" class="icon" viewBox="0 0 1024 1024" version="1.1" xmlns="http://www.w3.org/2000/svg" p-id="7125" xmlns:xlink="http://www.w3.org/1999/xlink" width="256" height="256"><path d="M354.15552 364.132693c-18.67776 39.094613-54.601387 87.6288-99.802453 87.6288-45.184 0-81.083733-48.49664-99.776854-87.56224-23.550293-22.304427-32.310613-41.13408-35.572053-64.779946-31.691093 28.008107-29.776213 105.02144-28.699307 137.373013-106.489173 12.83584-73.014613-149.799253 26.871467-166.26176-0.10752-6.81472-0.09216-14.078293-0.09216-21.911893 0-77.631147 63.16544-140.567893 137.268907-140.567894 74.10176 0 137.27744 62.936747 137.27744 140.567894 0 7.451307-0.116053 14.728533-0.46592 21.855573 100.165973 16.131413 133.855573 179.170987 27.234986 166.31808 1.088853-32.8448 3.058347-111.735467-30.175573-138.627413-4.31104 24.285867-13.78816 46.318933-34.06848 65.967786z m-1.058133-85.43232c-32.621227 8.640853-63.747413 9.345707-102.591147 1.79712 3.47648-22.77376 2.194773-34.193067-0.98816-56.738133-7.022933 28.404053-15.223467 48.725333-31.18592 62.721707-6.570667 2.061653-13.274453 1.949013-21.589333 0.64512 4.503893-20.16256 4.8896-30.317227 1.334613-48.820907-7.243093 21.444267-13.294933 32.82432-27.574613 48.279893-6.193493 1.645227-7.575893 3.145387-13.052587 4.276907 5.413547 29.999787 17.349973 60.926293 33.16736 86.125227 19.119787 30.452053 39.31648 47.684267 63.740587 47.684266 24.425813 0 44.617387-17.232213 63.737173-47.684266 17.96096-28.61568 30.921387-64.638293 35.002027-98.286934zM453.500587 650.763947c10.170027 69.297493 16.523947 144.689493 17.686186 193.41312 0.10752 4.253013-1.297067 7.983787-4.145493 11.050666-2.853547 3.06688-6.398293 4.609707-10.468693 4.609707H55.468373c-4.068693 0-7.615147-1.542827-10.468693-4.609707-2.84672-3.06688-3.33312-6.806187-3.23072-11.066026 1.163947-48.723627 6.59968-124.110507 16.774827-193.406294 20.005547 6.790827 40.644267 12.607147 62.001493 18.433707 41.613653 11.352747 85.92384 23.340373 133.480107 27.415893h3.986773c47.556267-4.077227 91.866453-16.063147 133.480107-27.415893 21.357227-5.828267 42.001067-11.639467 62.00832-18.425173z" fill="#3B4552" p-id="7126"></path><path d="M140.136107 482.02752a274.28352 274.28352 0 0 1 35.5072-13.259093c-7.420587 41.80992-9.96352 83.621547-9.96352 125.431466 25.992533-19.449173 64.351573-38.900053 90.340693-58.35264 25.995947 19.452587 64.360107 38.903467 90.350933 58.35264 0-41.80992-2.548053-83.621547-9.965226-125.431466a274.307413 274.307413 0 0 1 35.50208 13.259093c27.200853 12.361387 49.460907 23.83872 58.241706 53.485227 6.642347 22.417067 12.653227 50.4832 17.906347 81.000106 0.269653 1.56672 0.534187 3.119787 0.800427 4.696747a1041.641813 1041.641813 0 0 1-64.457387 19.833173c-39.82336 10.856107-82.42688 19.966293-128.380587 26.943147-45.953707-6.987093-88.557227-16.08704-128.380586-26.943147a1041.773227 1041.773227 0 0 1-64.45056-19.833173c0.314027-1.8432 0.622933-3.679573 0.940373-5.515947 5.2224-30.196053 11.1872-57.960107 17.768107-80.1792 8.7808-29.63968 31.034027-41.125547 58.24-53.486933zM805.85216 452.79232c-20.171093 43.33056-29.008213 41.192107-69.183147 72.68352-40.173227-31.49312-49.015467-29.354667-69.188266-72.68352-7.92064 2.346667-30.6944 5.589333-44.608854 9.6512 31.947093 57.984 41.004373 64.923307 96.295254 102.186667 5.106347 3.437227 10.461867 7.043413 17.501866 11.876693a1914.487467 1914.487467 0 0 1 17.488214-11.866453c55.062187-37.106347 64.994987-45.3632 96.310613-102.196907-13.919573-4.061867-36.693333-7.304533-44.61568-9.6512z" fill="#2B78C2" p-id="7127"></path><path d="M605.049173 262.580907c-20.476587-61.114027-4.352-97.84832 20.637014-128.295254 32.633173-39.739733 78.114133-58.141013 121.915733-55.07072-2.244267-7.487147-2.930347-15.455573-1.645227-26.56768 0.38912-3.370667 30.235307 30.045867 31.977814 25.332054 1.60256-4.340053 17.230507-38.388053 18.67264-24.768854 2.4064 22.597973 10.139307 38.13888 13.94688 46.301867 9.014613-7.150933 46.52032-22.920533 38.96832-12.035413-10.820267 15.604053-13.89056 25.7536-14.933334 32.244053a152.106667 152.106667 0 0 1 18.16064 22.330027c27.646293 41.36448 28.018347 79.802027 13.1072 120.147626 11.06944 4.973227 13.269333 26.622293 10.079574 36.097707-2.486613 7.386453-15.648427 24.098133-23.666347 26.013013-18.198187 50.60096-57.890133 127.43168-116.568747 127.43168-62.132907 0-95.752533-74.79808-113.210026-127.13984-10.24512 0.462507-23.877973-17.7664-26.750294-26.304853-3.119787-9.270613-0.856747-30.175573 9.30816-35.715413z m234.088107 9.41056c-20.200107-17.77664-33.109333-38.085973-39.775573-63.88736-39.497387 44.714667-109.694293 55.427413-165.584214 51.54816 12.924587 55.5264 40.82688 162.53952 101.92384 164.1216 54.038187-1.85344 93.4656-102.976853 103.435947-151.7824zM16.576853 835.357013H1013.76v44.883627H16.576853v-44.883627z" fill="#3B4552" p-id="7128"></path><path d="M957.5936 519.063893c-6.075733-20.548267-46.972587-37.558613-84.62336-49.728853l-5.97504 10.835627c-23.000747 52.276907-52.68992 72.323413-100.473173 104.531626-5.98528 4.03968-13.743787 8.267093-17.6384 11.973974v238.68416H725.512533v-238.114134c-3.894613-3.836587-12.281173-8.28928-18.59072-12.544-47.791787-32.196267-77.56288-52.253013-100.553386-104.531626l-6.002347-10.837334c-37.654187 12.17024-78.537387 29.172053-84.619947 49.73568-22.62528 76.363093-33.05984 238.44352-34.819413 317.54752-0.298667 12.83072 9.417387 23.2192 21.664427 23.2192h468.148906c12.24704 0 21.957973-10.390187 21.664427-23.2192-1.77664-79.104-12.224853-241.206613-34.81088-317.55264z m-168.920747 134.949547c-11.636053 0-21.077333-9.879893-21.077333-22.074027 0-12.199253 9.439573-22.089387 21.077333-22.089386 11.639467 0 21.082453 9.890133 21.082454 22.089386 0 12.194133-9.44128 22.074027-21.082454 22.074027z" fill="#3B4552" p-id="7129"></path></svg>