<svg data-v-218d7798="" id="shape_P1i1rJC8Tr" data-noselect="" viewBox="0 0 800 600" width="800" height="600" preserveAspectRatio="none" version="1.1" xmlns="http://www.w3.org/2000/svg" xmlns:xlink="http://www.w3.org/1999/xlink" class="svg-canvas"><defs data-v-218d7798=""></defs> <g data-v-218d7798="" transform="translate(309.75610675231,136) rotate(0,180,180) scale(1,1)" filter="" style="opacity: 1;"><g data-v-218d7798=""><rect fill="rgba(0,0,0,0)" width="380" height="380" x="-10" y="-10"></rect><svg version="1.1" id="图层_1" xmlns="http://www.w3.org/2000/svg" xmlns:xlink="http://www.w3.org/1999/xlink" x="0px" y="0px" viewBox="0 0 435.29998779296875 435.29998779296875" style="enable-background:new 0 0 435.3 435.3;" xml:space="preserve" width="360" height="360" class="style-removed" preserveAspectRatio="none" data-parent="shape_P1i1rJC8Tr">

<g>
	<polygon points="184.5,201.1 170,192.8 266,137.1 266,154.4 	" fill="#FF4A26" stroke-width="0"></polygon>
    <polygon points="118.4,172.2 266,257.5 266,276.3 118.4,190.6 	" fill="#FF4A26" stroke-width="0"></polygon>
    <polygon points="118.4,199.8 266,285.6 266,303.9 118.4,218 	" fill="#FF4A26" stroke-width="0"></polygon>
    <path d="M266,179.7c0,0.1,0,0.1,0,0.2L207,214.1l-14.5-8.4l73.5-42.2V179.7z" fill="#FF4A26" stroke-width="0"></path>
    <path d="M217.6,0C97.4,0,0,97.4,0,217.7c0,120.2,97.4,217.6,217.6,217.6c120.2,0,217.7-97.4,217.7-217.6
		C435.3,97.4,337.9,0,217.6,0z M320.8,157.3c-0.4,0.5-1,0.8-1.6,1L215,218.7l105.4,60.9c1.9,1.1,2.5,3.4,1.5,5.3v37.6
		c3.3,1.5,5.6,4.8,5.6,8.7c0,5.3-4.3,9.6-9.6,9.6c-5.3,0-9.6-4.3-9.6-9.6c0-3.9,2.3-7.2,5.6-8.7v-37.4l-16.2-9.3v57.9
		c4.3,0.9,7.6,4.8,7.6,9.4c0,5.3-4.3,9.6-9.6,9.6s-9.6-4.3-9.6-9.6c0-3,1.4-5.7,3.6-7.5v-64.4l-15.8-9.1v81.2
		c3.3,1.5,5.6,4.9,5.6,8.7c0,5.3-4.3,9.6-9.6,9.6c-5.3,0-9.6-4.3-9.6-9.6c0-3.9,2.3-7.2,5.6-8.7v-30.1l-92.1-53.6v90.3
		c3.3,1.5,5.6,4.9,5.6,8.7c0,5.3-4.3,9.6-9.6,9.6c-5.3,0-9.6-4.3-9.6-9.6c0-3.9,2.3-7.2,5.6-8.7v-94.9l-21.6-12.6v94.5
		c3.3,1.5,5.6,4.9,5.6,8.7c0,5.3-4.3,9.6-9.6,9.6c-5.3,0-9.6-4.3-9.6-9.6c0-3.9,2.3-7.2,5.6-8.7v-99.1l-17.9-10.4v95.4
		c3.1,1.6,5.3,4.8,5.3,8.6c0,5.3-4.3,9.6-9.6,9.6s-9.6-4.3-9.6-9.6c0-4,2.5-7.4,6-8.9V113.1c-3.1-1.6-5.2-4.8-5.2-8.5
		c0-5.3,4.3-9.6,9.6-9.6s9.6,4.3,9.6,9.6c0,4-2.5,7.5-6,8.9v49.5l17.9,10.4v-73c-3.3-1.5-5.6-4.9-5.6-8.7c0-5.3,4.3-9.6,9.6-9.6
		c5.3,0,9.6,4.3,9.6,9.6c0,3.9-2.3,7.2-5.6,8.7v77.7l17.7,10.2l3.9-2.3V85.9c-3.3-1.5-5.6-4.9-5.6-8.7c0-5.3,4.3-9.6,9.6-9.6
		c5.3,0,9.6,4.3,9.6,9.6c0,3.9-2.3,7.2-5.6,8.7v95.3l92.1-53.4V81.1c-3.3-1.5-5.6-4.9-5.6-8.7c0-5.3,4.3-9.6,9.6-9.6
		c5.3,0,9.6,4.3,9.6,9.6c0,3.9-2.3,7.2-5.6,8.7v94.2l15.8-9.1V95.1c-3.3-1.5-5.6-4.9-5.6-8.7c0-5.3,4.3-9.6,9.6-9.6s9.6,4.3,9.6,9.6
		c0,3.9-2.3,7.2-5.6,8.7v66.5l16.2-9.4v-44.8c-3.3-1.5-5.6-4.9-5.6-8.7c0-5.3,4.3-9.6,9.6-9.6c5.3,0,9.6,4.3,9.6,9.6
		c0,3.9-2.3,7.2-5.6,8.7v45.5C322.6,154.4,322.1,156.2,320.8,157.3z" fill="#FF4A26" stroke-width="0"></path>
</g>
</svg></g></g></svg>
