<svg xmlns="http://www.w3.org/2000/svg" width="643" height="341" fill="none" xmlns:v="https://vecta.io/nano"><ellipse cx="321.841" cy="312.35" rx="321.068" ry="28.215" fill="#face55"/><path d="M551.803 299.421a234.33 234.33 0 0 0-17.837-89.673c-11.776-28.43-29.037-54.262-50.796-76.021s-47.591-39.02-76.021-50.796a234.33 234.33 0 0 0-89.673-17.837 234.32 234.32 0 0 0-89.673 17.837c-28.43 11.776-54.262 29.036-76.022 50.796a234.32 234.32 0 0 0-68.633 165.694m524.693-.001A290.37 290.37 0 0 0 522.794 94.1c-26.963-26.963-58.973-48.352-94.202-62.944S355.605 9.053 317.473 9.053a290.37 290.37 0 0 0-111.119 22.103c-35.229 14.592-67.239 35.981-94.202 62.944a290.39 290.39 0 0 0-62.944 94.202A290.35 290.35 0 0 0 27.105 299.42" stroke="#ecf0f9"/><path fill-rule="evenodd" d="M474.202 251.27c-8.158-25.804-22.056-49.527-40.87-69.093-31.559-32.823-74.362-51.263-118.994-51.263s-87.435 18.44-118.994 51.263c-18.349 19.083-32.023 42.12-40.256 67.186.34-.575.684-1.042 1.032-1.39 6.072-6.072 14.51-10.078 23.097-10.078s16.185 3.754 22.257 9.826l5.187 5.871h0c11.857 13.228 23.521 26.242 23.053 52.343h84.624 86.064l-.607-.029c-1.258-9.575 9.696-55.978 26.727-58.124 6.071-6.072 14.019-9.265 22.606-9.265s18.347 5.871 24.418 11.943a5.51 5.51 0 0 1 .656.81zm-326.864 33.09c-.306 2.558-.557 5.127-.754 7.705.197-2.437.45-5.035.754-7.705zm-1.283 21.575l.044-3.999c-.006 1.618.047 2.975.165 3.999h-.209zm42.367 0h-26.438l17.231-.264 9.207.264z" fill="#FC777D"/><g fill="#2e3446"><path opacity=".1" d="M347.96 136.181l-1.937-.482 1.937.482 5.535 1.378c12.065 3.004 23.731 7.43 34.754 13.183a157.22 157.22 0 0 1 26.866 17.743l4.824 3.952a151.88 151.88 0 0 1 38.091 46.627l10.823 20.517 4.528 10.112c-7.194-6.691-26.352-17.417-45.43-6.791-4.206-29.732-37.815-95.352-79.991-106.721z"/><path d="M345.838 134.351c.426 10.364-4.117 16.61-4.117 16.61-9.042 9.404-16.289 11.766-29.077 11.766s-20.912-3.64-29.954-13.044c-1.535-1.782-3.831-9.889-2.589-14.764l32.66-5.11 33.077 4.542z"/></g><path d="M293.336 143.073l.285-19.864h37.932v19.866c-15.515 13.427-31.943 5.593-38.217-.002zM139.867 284.531c-15.958 24.44-5.699 35.564 1.425 38.071 7.202 7.602 14.499 4.598 17.248 2.146 8.56 8.473 19.023 1.177 23.185-3.53l8.471-.662s.646.5 4.682 3.309c6.959 4.846 20.361-2.941 26.083-7.281 8.382-13.415-.818-18.829-6.465-19.858-5.307.309-6.536-1.714-6.793-2.369.288-3.132.365-12.156-.339-26.093-.714-14.122-10.107-23.241-14.714-26.035-3.715-2.354-14.847-5.207-29.651 2.209s-21.646 30.018-23.132 40.093z" fill="#fff"/><path d="M140.91 322.705c-7.215-2.565-17.604-13.947-1.443-38.957 2.616-1.636 7.803-3.283 7.623 3.22m-6.18 35.737c7.294 7.78 14.685 4.706 17.469 2.197m-17.469-2.197c-.348-9.505.4-29.959 6.18-35.737m0 0c3.855-10.083 14.4-5.856 19.191-2.482m-7.902 40.416c8.67 8.67 19.267 1.204 23.481-3.613m-23.481 3.613c-.828-11.967-.407-36.803 7.902-40.416m18.966 15.354l-3.387 21.449m0 0l8.58-.677m-24.159-36.126c10.386-4.515 16.031-3.387 22.805 4.742 5.418 6.502 19.567 7.375 25.965 6.999 5.72 1.054 15.037 6.593 6.547 20.321-5.795 4.44-19.191 12.147-26.416 7.45-9.032-5.87-3.712-22.468 12.418-22.352m-67.959-18.51c1.504-10.31 8.261-32.825 23.254-40.413s26.268-4.669 30.031-2.26c4.666 2.859 14.179 12.19 14.902 26.64s.3 24.912-.001 27.998" stroke="#2e3446"/><path d="M198.217 239.861c-12.792-6.749-29.003-.351-35.51 3.691 10.964-5.341 22.147-5.039 26.368-4.22 13.779 3.937 18.278 20.036 18.805 27.594l.703 19.508c15.186 3.516 14.647-9.666 12.479-16.696-2.285-7.147-10.053-23.129-22.845-29.877z" fill="#2e3446"/><path d="M147.025 279.665c-2.278-2.2-5.582 1.488-6.861 3.172 5.216-2.697 7.087.241 7.196 1.978l1.976-2.097c4.738-4.572 12.467-1.679 17.022 1.258l1.918-.899c-.628-.785-3.671-3.232-4.948-4.574-6.982-5.487-12.866-.408-15.223 2.342l-1.08-1.18zm42.019 3.709c-2.588-3.005-8.401-2.491-10.314-1.97 2.535.327 6 1.688 10.314 7.408 3.625 4.807 14.522 6.464 18.174 6.707l.329-5.099-4.146.104c-4.278.208-11.123-3.394-14.357-7.15z" fill="#d9e5f5"/><path d="M488.84 284.531c15.958 24.44 5.699 35.564-1.425 38.071-7.202 7.602-14.499 4.598-17.248 2.146-8.56 8.473-19.023 1.177-23.185-3.53l-8.471-.662s-.646.5-4.682 3.309c-6.959 4.846-20.361-2.941-26.083-7.281-8.382-13.415.818-18.829 6.465-19.858 5.307.309 6.536-1.714 6.793-2.369-.288-3.132-.365-12.156.339-26.093.714-14.122 10.107-23.241 14.714-26.035 3.716-2.354 14.847-5.207 29.651 2.209s21.646 30.018 23.132 40.093z" fill="#fff"/><path d="M487.851 322.705c7.215-2.565 17.605-13.947 1.443-38.957-2.616-1.636-7.803-3.283-7.622 3.22m6.179 35.737c-7.294 7.78-14.684 4.706-17.468 2.197m17.468-2.197c.349-9.505-.399-29.959-6.179-35.737m0 0c-3.855-10.083-14.401-5.856-19.192-2.482m7.903 40.416c-8.67 8.67-19.267 1.204-23.482-3.613m23.482 3.613c.828-11.967.406-36.803-7.903-40.416m-18.965 15.354l3.386 21.449m0 0l-8.579-.677m24.158-36.126c-10.386-4.515-16.03-3.387-22.804 4.742-5.419 6.502-19.568 7.375-25.965 6.999-5.72 1.054-15.037 6.593-6.548 20.321 5.795 4.44 19.192 12.147 26.417 7.45 9.031-5.87 3.712-22.468-12.418-22.352m67.959-18.51c-1.504-10.31-8.262-32.825-23.255-40.413s-26.267-4.669-30.03-2.26c-4.666 2.859-14.179 12.19-14.902 26.64s-.301 24.234 0 27.32" stroke="#2e3446"/><path d="M430.545 239.861c12.792-6.749 29.003-.351 35.51 3.691-10.964-5.341-22.147-5.039-26.368-4.22-13.779 3.937-18.278 20.036-18.806 27.594l-.703 19.508c-15.185 3.516-14.646-9.666-12.478-16.696 2.285-7.147 10.052-23.129 22.845-29.877z" fill="#2e3446"/><path d="M481.59 279.022c2.278-2.2 5.561 2.015 6.84 3.7-4.815-2.363-6.695-.044-7.22 2.056l-2.209-2.484c-4.738-4.572-13.134-1.146-16.518 1.741l-1.925-1.05c.629-.786 3.451-3.783 4.728-5.125 6.982-5.487 12.867-.408 15.224 2.342l1.08-1.18z" fill="#d9e5f5"/><path d="M212.68 205.273c-.343-2.461 1.569-4.658 4.054-4.658h193.353c2.471 0 4.379 2.175 4.058 4.626l-13.309 101.488c-.268 2.037-2.004 3.561-4.059 3.561H230.88c-2.042 0-3.772-1.506-4.054-3.529L212.68 205.273z" fill="#2e3446"/><rect x="226.258" y="310.154" width="175.746" height="11.24" rx="3" fill="#484d5c"/><circle cx="317.215" cy="255.003" r="20.676" fill="#e4ecf9"/><path d="M314.408 134.115c-7.612 1.962-17.014-4.181-20.763-7.498l37.631-.721c-2.451 1.923-9.256 6.258-16.868 8.219z" fill="#d9e5f5"/><path d="M292.982 6.195c35.011-9.438 46.147 4.154 49.022 10.926 26.185.724 23.491 37.135 18.87 55.249l-3.686 5.767-6.757 23.677c-2.559 6.576-9.522 17.605-19.658 24.283-9.161 6.035-19.935 7.669-37.175.461-13.793-5.767-21.219-23.809-23.208-32.109-2.212-6.335-7.431-19.79-10.613-22.935-3.979-3.932-10.558-53.522 33.205-65.319z" fill="#fff"/><g stroke="#2e3446"><g stroke-width=".5"><path d="M286.193 50.313c2.449 16.725-8.498 31.102-14.277 36.2-8.669-13.427-19.837-45.482 4.841-66.285s53.962-10.537 65.519-2.803c23.455 2.294 20.939 25.95 20.396 39.257-.51 12.488-7.479 21.164-13.002 25.243-29.369 10.401-54.555-16.74-63.477-31.611z" fill="#2e3446"/><path d="M292.788 22.986c5.995-2.791 12.438-4.236 18.957-4.236s12.963 1.445 18.957 4.236 11.408 6.867 15.95 11.974 8.126 11.147 10.565 17.768c2.411 6.544 3.662 13.541 3.691 20.604h-6.046c-.028-6.392-1.162-12.711-3.332-18.6-2.199-5.967-5.412-11.364-9.439-15.892s-8.785-8.093-13.988-10.516-10.759-3.662-16.358-3.662-11.156 1.239-16.357 3.662-9.962 5.989-13.988 10.517-7.241 9.925-9.439 15.892c-2.17 5.89-3.304 12.208-3.333 18.6h-6.045c.028-7.063 1.279-14.06 3.69-20.604 2.44-6.621 6.024-12.662 10.565-17.768s9.958-9.183 15.95-11.974z" fill="#fff"/></g><path d="M351.099 81.814c-.001-5.291 5.468-8.73 8.203-9.788 7.616-2.54 10.583 2.293 11.114 5.027l-.529 16.137c-.211 5.079-3.688 9.581-8.632 9.911l-10.419.142.263-21.429zm-78.772-.855c.001-5.291-5.468-8.73-8.203-9.788-7.616-2.54-10.583 2.293-11.115 5.027l.529 16.137c.212 5.079 3.689 9.581 8.633 9.91l10.419.142-.263-21.428z" fill="#2e3446"/><path d="M308.164 114.371c4.186-.382 13.642-2.913 17.973-9.984" stroke-width="2.047"/></g><g fill="#2e3446"><ellipse cx="300.61" cy="88.274" rx="1.853" ry="4.137"/><ellipse cx="324.567" cy="88.274" rx="1.853" ry="4.137"/></g><path d="M293.906 79.006c1.998-1.142 6.508-3.368 8.559-3.14m6.555 17.398c-.567 1.804-.617 5.3 3.714 4.845 5.415-.569 2.845-5.987.563-5.702" stroke="#2e3446" stroke-width="2.047"/><g opacity=".5" fill="#f7bf68"><path d="M495.037 76.18l3.156 2.426c2.121 1.792 3.986 3.801 4.892 6.506.643 1.917.572 3.808-.449 5.593l-7.425 12.843c-.658 1.131-1.405 2.209-2.426 3.057-2.473 2.056-5.264 2.235-8.215 1.323a12.41 12.41 0 0 1-2.544-1.131l-14.235-8.207c-1.629-.93-3.396-1.414-5.293-1.239-2.519.233-4.433 1.554-6.045 3.398-.47.536-.848 1.135-1.2 1.755l-3.659 6.338c-.212.367-.418.706-.924.409l-4.703-2.757c-2.675-1.779-3.681-4.447-3.696-7.549-.016-2.597.676-5.05 1.671-7.413 1.515-3.598 3.449-6.949 6.101-9.838 1.888-2.06 4.063-3.7 6.863-4.338 2.355-.535 4.604-.237 6.684.959l19.416 11.21c.614.355 1.097.229 1.447-.378.392-.679.245-1.218-.443-1.614l-12.445-7.186c-.82-.473-.812-.469-.339-1.315l3.039-5.462c1.153-2.177 3.017-3.09 5.373-3.193 2.492-.113 4.823.593 7.11 1.475 1.009.39 1.993.849 2.988 1.272l5.303 3.062-.002-.006zm-12.101 2.589c.859-1.451.454-3.138-.961-3.971-1.444-.854-3.214-.413-4.045 1.008-.792 1.354-.296 3.192 1.082 3.998s3.106.346 3.924-1.035zm-4.698 45.809l-9.97-5.756c-.781-.451-.789-.455-1.222.305-.762 1.319-.803 1.119.478 1.859l12.391 7.153c.82.474.82.484.341 1.322l-3.244 5.656c-.995 1.831-2.585 2.673-4.562 2.922-1.887.238-3.736-.059-5.508-.65-5.665-1.885-10.775-4.758-15.135-8.868-1.564-1.476-2.825-3.188-3.475-5.281-.59-1.908-.497-3.729.549-5.505l7.912-13.64c.907-1.554 2.182-2.734 3.853-3.446 2.189-.933 4.377-.691 6.562.025.68.22 1.295.57 1.912.926l13.489 7.778c1.268.726 2.589 1.369 4.051 1.641 3.323.612 5.942-.651 8.123-3.058.639-.709 1.194-1.482 1.67-2.316l3.416-5.942c.296-.522.572-.622 1.097-.304 1.249.758 2.512 1.502 3.803 2.196 2.601 1.402 3.917 3.641 4.283 6.497.338 2.643-.195 5.172-1.118 7.628-1.616 4.295-3.836 8.241-7.044 11.559-1.995 2.066-4.32 3.614-7.26 3.999-1.997.258-3.893-.066-5.651-1.071l-9.739-5.623-.002-.006zm-9.818 5.173c-.796 1.388-.315 3.197 1.058 3.994 1.394.805 3.218.297 4.025-1.128.791-1.397.288-3.186-1.113-3.97a2.91 2.91 0 0 0-3.974 1.101l.004.003z"/></g><g opacity=".5"><mask id="A" maskUnits="userSpaceOnUse" x="107" y="92" width="72" height="72"><path d="M152.423 92.498l-45.017 25.99 25.99 45.017 45.017-25.991-25.99-45.016z" fill="#fff"/></mask><g mask="url(#A)"><path d="M137.382 155.307l-26.542-37.774 39.014-22.525 19.434 41.869-13.419 13.654-18.487 4.776z" fill="#e44d26"/><path d="M140.759 124.299l-6.463 3.731-3.334-4.743 6.91-3.989-2.82-4.885-.017.01-12.23 7.061.873 1.243 8.971 12.767 10.93-6.311-2.82-4.884zm7.316 12.682l-.018.018-6.288 1.672-2.597-3.695-2.643 1.526-2.259 1.305 5.111 7.273 11.609-2.998.019-.02-2.934-5.081z" fill="#ebebeb"/><path d="M140.742 124.305l2.82 4.884 6.014-3.473 3.091 6.662-4.599 4.615 2.934 5.082 8.41-8.556-.402-.868-6.277-13.521-.638-1.38-1.316.76-10.037 5.795zm-5.711-9.885l1.752 3.033 1.061 1.839.007.012 11.782-6.802.016-.009-.536-1.155-1.207-2.604-.64-1.378-12.235 7.064z" fill="#fff"/></g></g><path opacity=".5" d="M221.028 28.74l-.85.142c-.225-.011-.445-.041-.658-.121l-2.97-1.112-7.186-2.69c-.213-.08-.435-.142-.635-.254-.478-.266-.808-.666-1.024-1.163-.026-.058-.046-.117-.068-.176l-1.927-11.537.004-.045a2.21 2.21 0 0 1 .138-.793c.13-.364.322-.689.625-.939l3.616-2.98 4.887-4.025c.188-.155.37-.316.595-.42.239-.11.49-.179.751-.208.324-.037.643-.017.951.098l5.135 1.922 5.27 1.969c.359.133.682.313.943.597.289.315.507.667.579 1.097l1.863 11.156c.009.052.021.103.022.155.011.739-.228 1.375-.807 1.852l-8.36 6.889c-.277.228-.545.468-.894.585zm-10.44-11.795a7.2 7.2 0 0 0 .217.941 7.78 7.78 0 0 0 1.567 2.886 7.94 7.94 0 0 0 2.847 2.116c1.194.527 2.444.743 3.748.651a7.81 7.81 0 0 0 1.759-.327c.894-.276 1.715-.696 2.46-1.263 1.185-.904 2.053-2.05 2.601-3.438.034-.087.034-.088-.053-.12l-3.543-1.331c-.053-.02-.074-.013-.096.041-.597 1.481-1.973 2.46-3.565 2.503-1.305.035-2.382-.467-3.212-1.475a3.8 3.8 0 0 1-.873-2.242 3.85 3.85 0 0 1 .923-2.793c.723-.86 1.655-1.341 2.778-1.407 1.3-.075 2.387.393 3.259 1.36.061.068.06.07.132.011l2.909-2.401c.07-.057.07-.06.013-.127-.481-.565-1.028-1.055-1.646-1.467-.695-.464-1.444-.811-2.248-1.038-1.344-.379-2.693-.406-4.05-.075a7.67 7.67 0 0 0-1.697.628c-1.455.747-2.581 1.837-3.365 3.271-.873 1.598-1.15 3.304-.865 5.101v-.002z" fill="#a8caff"/></svg>
