<?xml version="1.0" standalone="no"?><!DOCTYPE svg PUBLIC "-//W3C//DTD SVG 1.1//EN" "http://www.w3.org/Graphics/SVG/1.1/DTD/svg11.dtd"><svg t="1693327131263" class="icon" viewBox="0 0 1024 1024" version="1.1" xmlns="http://www.w3.org/2000/svg" p-id="4022" width="32" height="32" xmlns:xlink="http://www.w3.org/1999/xlink"><path d="M257.706667 376.32H128c-11.946667 0-21.333333-9.386667-21.333333-21.333333s9.386667-21.333333 21.333333-21.333334h129.706667c35.413333 0 64-28.586667 64-64V128c0-11.946667 9.386667-21.333333 21.333333-21.333333s21.333333 9.386667 21.333333 21.333333v141.653333a106.666667 106.666667 0 0 1-106.666666 106.666667zM896 376.32h-129.706667a106.666667 106.666667 0 0 1-106.666666-106.666667V128c0-11.946667 9.386667-21.333333 21.333333-21.333333s21.333333 9.386667 21.333333 21.333333v141.653333c0 35.413333 28.586667 64 64 64H896c11.946667 0 21.333333 9.386667 21.333333 21.333334s-9.386667 21.333333-21.333333 21.333333z" fill="#333333" p-id="4023"></path><path d="M896 376.32h-129.706667a106.666667 106.666667 0 0 1-106.666666-106.666667V128c0-11.946667 9.386667-21.333333 21.333333-21.333333s21.333333 9.386667 21.333333 21.333333v141.653333c0 35.413333 28.586667 64 64 64H896c11.946667 0 21.333333 9.386667 21.333333 21.333334s-9.386667 21.333333-21.333333 21.333333zM257.706667 376.32H128c-11.946667 0-21.333333-9.386667-21.333333-21.333333s9.386667-21.333333 21.333333-21.333334h129.706667c35.413333 0 64-28.586667 64-64V128c0-11.946667 9.386667-21.333333 21.333333-21.333333s21.333333 9.386667 21.333333 21.333333v141.653333a106.666667 106.666667 0 0 1-106.666666 106.666667zM680.96 917.333333c-11.946667 0-21.333333-9.386667-21.333333-21.333333v-141.653333a106.666667 106.666667 0 0 1 106.666666-106.666667H896c11.946667 0 21.333333 9.386667 21.333333 21.333333s-9.386667 21.333333-21.333333 21.333334h-129.706667c-35.413333 0-64 28.586667-64 64V896c0 11.946667-9.386667 21.333333-21.333333 21.333333zM343.04 917.333333c-11.946667 0-21.333333-9.386667-21.333333-21.333333v-141.653333c0-35.413333-28.586667-64-64-64H128c-11.946667 0-21.333333-9.386667-21.333333-21.333334s9.386667-21.333333 21.333333-21.333333h129.706667a106.666667 106.666667 0 0 1 106.666666 106.666667V896c0 11.946667-9.813333 21.333333-21.333333 21.333333z" fill="#333333" p-id="4024"></path><path d="M343.04 917.333333c-11.946667 0-21.333333-9.386667-21.333333-21.333333v-141.653333c0-35.413333-28.586667-64-64-64H128c-11.946667 0-21.333333-9.386667-21.333333-21.333334s9.386667-21.333333 21.333333-21.333333h129.706667a106.666667 106.666667 0 0 1 106.666666 106.666667V896c0 11.946667-9.813333 21.333333-21.333333 21.333333zM680.96 917.333333c-11.946667 0-21.333333-9.386667-21.333333-21.333333v-141.653333a106.666667 106.666667 0 0 1 106.666666-106.666667H896c11.946667 0 21.333333 9.386667 21.333333 21.333333s-9.386667 21.333333-21.333333 21.333334h-129.706667c-35.413333 0-64 28.586667-64 64V896c0 11.946667-9.386667 21.333333-21.333333 21.333333z" fill="#333333" p-id="4025"></path></svg>