<?xml version="1.0" standalone="no"?><!DOCTYPE svg PUBLIC "-//W3C//DTD SVG 1.1//EN" "http://www.w3.org/Graphics/SVG/1.1/DTD/svg11.dtd"><svg t="1720653081207" class="icon" viewBox="0 0 2170 1024" version="1.1" xmlns="http://www.w3.org/2000/svg" p-id="21193" xmlns:xlink="http://www.w3.org/1999/xlink" width="542.5" height="256"><path d="M711.877973 531.456l-3.754666-3.734187-34.945707 36.9152-21.787307-6.597973-7.775573-21.36064 38.703787-33.153707-3.754667-3.754666a49.5616 49.5616 0 0 0-62.900907 66.46784l-106.072746 111.957333c-6.98368 7.379627-7.60832 21.05344 0.98304 27.603627s19.182933 6.567253 26.166613-0.812374l108.458667-110.824106c18.090667 3.072 39.550293-1.092267 53.51424-15.85152 14.09024-11.17184 18.684587-27.86304 13.165226-46.854827zM523.264 699.767467a8.192 8.192 0 1 1 8.192-8.192 8.192 8.192 0 0 1-8.192 8.192z" fill="#B2B2B2" p-id="21194"></path><path d="M711.877973 531.456l-34.95936 36.928853-21.787306-6.597973-7.775574-21.36064 34.955947-36.898133a49.5616 49.5616 0 0 0-62.900907 66.44736l-106.072746 111.957333c-6.98368 7.379627-7.60832 21.05344 0.98304 27.603627s19.182933 6.567253 26.166613-0.812374l108.455253-110.810453c18.090667 3.072 39.550293-1.092267 53.51424-15.85152 14.093653-11.178667 17.093973-32.836267 9.4208-50.60608z m-184.855893 172.032a8.192 8.192 0 1 1 8.192-8.192 8.192 8.192 0 0 1-8.195413 8.219307z" fill="#505050" p-id="21195"></path><path d="M603.200853 614.836907l-55.579306-52.568747-20.224-7.43424-28.204374-38.341973 13.441707-12.721494 40.045227 26.415787 8.13056 18.711893 54.490453 51.370667-12.100267 14.568107z" fill="#B2B2B2" p-id="21196"></path><path d="M605.917867 609.897813l-55.58272-52.568746-20.220587-7.43424-27.180373-36.94592-3.741014 3.54304 28.204374 38.341973 20.224 7.43424 55.579306 52.568747 12.100267-14.568107-0.77824-0.733867-8.605013 10.36288z" fill="#737373" p-id="21197"></path><path d="M703.167147 709.761707s-12.506453 6.505813-21.783894-2.54976l-80.274773-72.260267c-9.018027-8.7552-7.041707-16.902827-0.628053-22.715733l12.844373-14.434987c6.42048-5.679787 14.336-7.168 20.852053-1.652053l81.793707 77.329066c7.796053 7.359147 6.987093 17.012053 0.628053 22.7328z" fill="#8562AD" p-id="21198"></path><path d="M716.598613 683.3664s-10.581333 11.055787-13.431466 13.554347-11.072853 7.796053-20.350294-1.262934l-81.708373-73.550506a23.552 23.552 0 0 1-4.287147-5.461334c-3.072 5.2224-2.635093 11.58144 4.287147 18.302294l81.708373 73.550506c6.949547 6.335147 17.486507 4.379307 20.350294 1.262934 6.5024-5.77536 13.431467-13.554347 13.431466-13.554347a14.281387 14.281387 0 0 0 3.413334-17.3056 15.36 15.36 0 0 1-3.413334 4.46464z" fill="#5C2D91" p-id="21199"></path><path d="M566.3744 249.32352v131.72736a2.993493 2.993493 0 0 0 2.993493 2.993493h95.802027a2.993493 2.993493 0 0 1 2.993493 2.993494 2.993493 2.993493 0 0 0 2.993494 2.993493h26.944853a2.993493 2.993493 0 0 0 2.993493-2.993493 2.993493 2.993493 0 0 1 2.993494-2.993494h95.802026a2.993493 2.993493 0 0 0 2.993494-2.993493V249.32352a2.993493 2.993493 0 0 0-2.993494-2.993493h-230.52288a2.993493 2.993493 0 0 0-2.993493 2.993493z" fill="#333333" p-id="21200"></path><path d="M578.348373 360.093013h212.558507v14.967467h-212.558507z" fill="#737373" p-id="21201"></path><path d="M683.13088 375.391573s-2.276693-15.29856-21.640533-15.29856h-83.141974V234.35264H664.917333c17.749333 0 18.220373 15.29856 18.220374 15.29856z" fill="#C7B8FF" p-id="21202"></path><path d="M599.30624 252.317013h62.870187v5.986987h-62.870187z m0 14.967467h62.870187v5.986987h-62.870187z m0 14.97088h62.870187v5.986987h-62.870187z m0 14.967467h62.870187v5.986986h-62.870187z m0 14.967466h62.870187v5.986987h-62.870187z m0 14.97088h62.870187v5.986987h-62.870187z m0 14.967467h62.870187v5.986987h-62.870187z" fill="#9E83E3" p-id="21203"></path><path d="M683.13088 375.391573s2.276693-15.29856 21.640533-15.29856h86.135467V234.35264h-89.552213c-17.749333 0-18.220373 15.29856-18.220374 15.29856z" fill="#C7B8FF" p-id="21204"></path><path d="M769.949013 258.304h-62.870186v-5.986987h62.870186z m0 14.97088h-62.870186v-5.986987h62.870186z m0 14.964053h-62.870186v-5.986986h62.870186z m0 14.97088h-62.870186v-5.986986h62.870186z m0 14.97088h-62.870186v-5.986986h62.870186z m0 14.967467h-62.870186v-5.986987h62.870186z m0 14.97088h-62.870186v-5.986987h62.870186z" fill="#9E83E3" p-id="21205"></path><path d="M722.049707 293.853867l-10.478934-2.993494-10.47552 2.993494V228.365653h20.954454V293.853867z" fill="#5C2D91" p-id="21206"></path><path d="M681.63584 249.32352h2.993493v125.740373h-2.993493z" fill="#9E83E3" p-id="21207"></path><path d="M1136.13824 97.334613m25.6512 0l192.075093 0q25.6512 0 25.6512 25.6512l0 118.295894q0 25.6512-25.6512 25.6512l-192.075093 0q-25.6512 0-25.6512-25.6512l0-118.295894q0-25.6512 25.6512-25.6512Z" fill="#5C2D91" p-id="21208"></path><path d="M1136.13824 142.41792v105.437867a19.073707 19.073707 0 0 0 19.073707 19.073706h205.226666a19.073707 19.073707 0 0 0 19.073707-19.073706v-105.437867z" fill="#8562AD" p-id="21209"></path><path d="M1191.22944 142.41792h7.7824v123.159893h-7.7824z" fill="#5C2D91" p-id="21210"></path><path d="M1331.469653 117.12512h24.190294v12.096853h-24.190294z m-39.58784 0h24.190294v12.096853h-24.190294z" fill="#C7B8FF" p-id="21211"></path><path d="M995.208533 595.336533v48.943787c0 14.830933 13.953707 32.631467 47.950507 32.631467s46.974293-16.684373 46.974293-34.474667v-42.28096z" fill="#8E562E" p-id="21212"></path><path d="M984.828587 570.862933c27.067733 37.819733 45.236907 67.857067 105.304746 69.338454v-40.045227z" fill="#613D30" p-id="21213"></path><path d="M1070.26432 438.7328s21.548373 41.724587 24.070827 44.4416 31.679147 31.709867 31.679146 31.709867a5.072213 5.072213 0 0 1 0.621227 5.901653c-1.901227 3.18464-12.629333 7.666347-13.042347 10.693973s10.24 23.71584 19.002027 36.447574c9.591467 13.909333 5.014187 19.43552-13.09696 26.68544-18.961067 7.591253-70.06208 21.551787-86.094507 18.0224s-83.851947-59.767467-83.851946-59.767467 16.991573-93.525333 30.72-104.6528 89.992533-9.48224 89.992533-9.48224z" fill="#8E562E" p-id="21214"></path><path d="M1043.698347 377.695573s28.811947 11.584853 37.277013 35.300694-3.79904 34.70336-35.396267 46.2336-32.177493 13.08672-18.937173 32.570026a272.41472 272.41472 0 0 1 18.281813 29.876907l-13.134506 8.359253a79.230293 79.230293 0 0 0-15.936854-13.233493c-10.15808-5.618347-19.718827-3.140267-23.210666 6.17472a24.285867 24.285867 0 0 0 14.789973 29.71648 29.651627 29.651627 0 0 1 19.456 26.37824c1.23904 11.752107-17.85856 28.672-17.85856 28.672s-41.147733-8.342187-69.87776-54.528-16.892587-54.145707-1.44384-63.232c-11.298133-15.213227-1.826133-54.094507 57.750187-74.69056 49.646933-17.16224 51.411627-28.69248 48.24064-37.597867z" fill="#282828" p-id="21215"></path><path d="M1119.010133 544.8192c-4.096 2.64192-9.939627 6.26688-14.301866 8.475307-7.43424 3.754667-25.0368 10.09664-25.0368 10.09664s28.453547 6.44096 41.984-13.54752a55.25504 55.25504 0 0 1-2.645334-5.024427z" fill="#F3F3F3" p-id="21216"></path><path d="M1385.472 390.198613c29.457067-28.422827 24.576-31.573333 35.089067-65.877333 4.778667-20.43904 0.054613-28.573013-7.54688-20.25472 11.414187-18.189653 1.024-37.23264-7.540054-24.067413 1.908053-5.888 0.979627-16.2816-6.6048-17.486507-6.638933-0.341333-8.553813 11.264-9.51296 16.110933-4.73088-4.324693-14.219947-3.454293-18.04288 12.1344a47.059627 47.059627 0 0 1-9.519786 19.923627c-1.867093-15.06304-8.495787-21.121707-16.08704-16.616107-0.03072 15.240533-8.608427 37.932373-11.492694 58.197334a90.55232 90.55232 0 0 1-0.02048 11.42784c-6.9632 53.9136-13.653333 73.728-13.653333 73.728 48.34304 8.799573 50.967893-14.301867 50.967893-14.301867z" fill="#8E562E" p-id="21217"></path><path d="M1097.3184 650.83392h90.968747c31.6416 0 75.147947-51.428693 96.90112-103.570773s36.584107-146.722133 36.584106-146.722134l67.423574 17.066667s-21.940907 115.080533-50.612907 200.116907-151.28576 219.651413-151.28576 219.651413V1017.173333h-320.36864s-4.942507-291.8912-4.942507-313.531733 8.89856-24.60672 34.607787-32.515413 97.396053-24.71936 97.396053-24.71936l48.684374 25.709226z" fill="#2A3282" p-id="21218"></path><path d="M995.208533 625.640107l48.315734 37.573973 46.609066-37.573973 20.03968 25.193813-13.800106 49.442133-50.14528-25.801386-43.615574 30.18752-28.893866-53.828267 21.490346-25.193813zM835.28704 1017.173333s4.942507-202.328747 14.830933-276.165973 33.512107-74.011307 41.530027-36.345173c29.996373 140.929707 29.996373 312.511147 29.996373 312.511146z m486.485333-616.628906s-14.830933 94.57664-36.584106 146.722133-54.38464 73.925973-84.036267 91.70944c-11.639467 6.98368-29.136213 11.844267-36.549973 11.844267 44.506453 84.493653 22.705493 186.545493 22.705493 186.545493s122.610347-134.61504 151.28576-219.651413 50.612907-200.116907 50.612907-200.116907z" fill="#0078D7" p-id="21219"></path><path d="M981.613227 20.65408a80.052907 80.052907 0 0 0-7.54688-4.416853l-0.211627-0.109227q-1.160533-0.590507-2.34496-1.14688l-0.648533-0.300373-2.297174-1.024-0.617813-0.252587q-3.519147-1.457493-7.226027-2.6112c-0.467627-0.146773-0.935253-0.293547-1.409706-0.43008-0.610987-0.177493-1.2288-0.341333-1.846614-0.515413-0.559787-0.150187-1.122987-0.293547-1.706666-0.433494s-1.140053-0.279893-1.706667-0.4096c-0.750933-0.170667-1.508693-0.320853-2.269867-0.47104-0.447147-0.088747-0.894293-0.18432-1.344853-0.26624q-1.662293-0.300373-3.34848-0.535893c-0.433493-0.06144-0.8704-0.109227-1.307307-0.167253a96.5632 96.5632 0 0 0-2.4576-0.279894q-0.682667-0.068267-1.365333-0.12288-1.286827-0.105813-2.587307-0.177493c-0.406187-0.02048-0.80896-0.047787-1.21856-0.064853A84.671147 84.671147 0 0 0 934.311253 6.826667a88.029867 88.029867 0 0 0-31.563093 5.727573q-3.607893 1.3824-7.0144 3.072-1.706667 0.843093-3.351893 1.754453-3.29728 1.826133-6.36928 3.928747t-5.894827 4.437333a69.973333 69.973333 0 0 0-25.828693 53.930667 68.44416 68.44416 0 0 0 11.264 37.645653q0.897707 1.365333 1.860266 2.706774a73.198933 73.198933 0 0 0 6.31808 7.611733l0.023894 0.027307 0.1536 0.157013q0.65536 0.682667 1.334613 1.365333l0.41984 0.45056 0.1024 0.109227c23.831893 25.07776 32.539307 59.712853 32.539307 59.712853h52.282026s8.66304-34.79552 32.385707-59.876693a69.454507 69.454507 0 0 0 21.357227-49.902933 70.73792 70.73792 0 0 0-32.7168-59.030187z" fill="#B4A0FF" p-id="21220"></path><path d="M946.03264 251.61728h-23.333547l-13.523626-16.298667h50.3808l-13.523627 16.298667z" fill="#5C2D91" p-id="21221"></path><path d="M906.212693 188.726613h56.30976V238.6944h-56.30976z" fill="#5C2D91" p-id="21222"></path><path d="M1557.080747 490.922667m-114.609494 0a114.609493 114.609493 0 1 0 229.218987 0 114.609493 114.609493 0 1 0-229.218987 0Z" fill="#8562AD" p-id="21223"></path><path d="M1520.779947 514.563413l-48.063147-21.920426v-8.338774l48.063147-23.002453v12.250453l-34.27328 14.677334v0.310613l34.27328 13.789867z m61.136213-70.5536l-35.97312 86.043307h-14.51008l35.812693-86.043307z m60.1088 47.96416l-48.063147 21.920427v-12.19584l34.37568-13.74208v-0.2048l-34.37568-14.718293V460.8l48.063147 22.848853z" fill="#FFFFFF" p-id="21224"></path><path d="M906.212693 204.673707h44.642987v7.7824h-44.642987z m0 15.5648h44.642987v7.7824h-44.642987z" fill="#8562AD" p-id="21225"></path><path d="M1066.325333 499.493547m-6.772053 0a6.772053 6.772053 0 1 0 13.544107 0 6.772053 6.772053 0 1 0-13.544107 0Z" fill="#282828" p-id="21226"></path></svg>