<?xml version="1.0" standalone="no"?><!DOCTYPE svg PUBLIC "-//W3C//DTD SVG 1.1//EN" "http://www.w3.org/Graphics/SVG/1.1/DTD/svg11.dtd"><svg t="1720653161521" class="icon" viewBox="0 0 1024 1024" version="1.1" xmlns="http://www.w3.org/2000/svg" p-id="31233" xmlns:xlink="http://www.w3.org/1999/xlink" width="256" height="256"><path d="M721.8 897.743v60.633l-423.467 0.39 0.422-66.645-290.724 0.45v76.743c0 22.508 19.802 51.116 108.898 51.116l747.74-0.759c71.416 0 136.273-22.464 147.36-51.116l0.486-77.185-290.715 6.373z" fill="#52A370" p-id="31234"></path><path d="M1012.52 888.627c0 38.282-73.79 69.616-163.985 69.616l-731.61 0.683c-54.577 0-108.894-14.87-108.894-70.299 0-38.281 73.789-69.616 163.993-69.616h676.519c90.188 0 163.976 31.327 163.976 69.616z" fill="#72E39C" p-id="31235"></path><path d="M977.033 47.618V883.78c0 26.291-53.156 47.606-118.716 47.606-74.435 0-118.716-21.32-118.716-47.606V47.618h237.432z" fill="#DEDEDE" p-id="31236"></path><path d="M977.033 47.618v216.775c0 26.294-53.156 47.614-118.716 47.614S739.6 290.687 739.6 264.393V47.618h237.432z" fill="#FF0040" fill-opacity=".64" p-id="31237"></path><path d="M858.317 308.144c63.942 0 116.045-20.288 118.583-45.683 0.076 0.639 0.125 1.281 0.125 1.936 0 26.29-53.16 47.618-118.716 47.618-65.56 0-118.72-21.323-118.72-47.618 0-0.65 0.068-1.297 0.116-1.936 2.55 25.4 54.678 45.683 118.612 45.683z" fill-opacity=".27" p-id="31238"></path><path d="M858.317 882.202c-74.435 0-118.716-33.623-118.716-59.922v61.496c0 26.299 44.257 47.622 118.716 47.622 65.556 0 118.716-21.327 118.716-47.622v-49.192c0 26.295-53.16 47.618-118.716 47.618z" fill-opacity=".25" p-id="31239"></path><path d="M858.317 513.867c63.942 0 116.045-20.279 118.583-45.682 0.076 0.642 0.125 1.28 0.125 1.931 0 26.295-53.16 47.63-118.716 47.63-65.56 0-118.72-21.339-118.72-47.63 0-0.65 0.068-1.289 0.116-1.931 2.55 25.403 54.678 45.682 118.612 45.682z m0 201.937c63.942 0 116.045-20.275 118.583-45.686 0.076 0.65 0.125 1.293 0.125 1.935 0 26.299-53.16 47.622-118.716 47.622-65.56 0-118.72-21.327-118.72-47.622 0-0.642 0.068-1.285 0.116-1.935 2.55 25.403 54.678 45.686 118.612 45.686z m0-620.564c63.942 0 116.045-20.28 118.583-45.678 0.076 0.642 0.125 1.28 0.125 1.935 0 26.295-53.16 47.614-118.716 47.614-65.56 0-118.72-21.32-118.72-47.614 0-0.65 0.068-1.289 0.116-1.935 2.55 25.395 54.678 45.678 118.612 45.678z" fill-opacity=".15" p-id="31240"></path><path d="M858.317 168.755c65.556 0 118.716-21.32 118.716-47.626v66.408c0 26.302-53.156 47.622-118.716 47.622S739.6 213.839 739.6 187.537v-66.408c0.004 26.307 53.16 47.626 118.716 47.626z" fill="#DEDEDE" p-id="31241"></path><path d="M858.317 882.202c-74.435 0-118.716-33.623-118.716-59.922v4.1c0 26.29 44.257 59.914 118.716 59.914 65.556 0 118.716-21.335 118.716-47.614v-4.1c0 26.299-53.16 47.622-118.716 47.622z" fill-opacity=".25" p-id="31242"></path><path d="M70.829 525.75h736.216v404.644H70.829z" fill="#D9D9D9" p-id="31243"></path><path d="M731 224.995H159.494L51.051 441.468h778.947L731 224.995z" fill="#A6EEFF" p-id="31244"></path><path d="M693.67 261.891H195.785L119.49 414.198l643.96 0.29L693.67 261.89z" fill="#E6E6E6" p-id="31245"></path><path d="M127.406 414.194l65.042-140.396h506.43l65.054 140.785 22.014 0.013-75.985-163.583h-526.62l-80.696 163.169 24.76 0.012zM60.91 855.341h754.748v75.05H60.91z" fill="#6CCAE0" p-id="31246"></path><path d="M815.309 855.341H60.906l8.196-20.496h738.01l8.197 20.496z" fill="#A6EEFF" p-id="31247"></path><path d="M212.594 565.429h88.14v-51.04h-88.14v51.04z m120.94 0h92.245v-51.04h-92.244v51.04z m-213.863 0h84.727v-51.04h-84.727v51.04z m314.304 0h94.297v-51.04h-94.297v51.04z m127.093 0h94.284v-51.04h-94.284v51.04zM119.67 666.76h84.727v-90.064h-84.727v90.064z m543.889 0h94.292v-90.064H663.56v90.064z m-102.492 0h94.284v-90.064h-94.284v90.064zM663.56 514.385v51.04h94.292v-51.04H663.56zM333.535 666.761h92.244v-90.064h-92.244v90.064z m100.44 0h94.297v-90.064h-94.297v90.064z m-221.38 0h88.14v-90.064h-88.14v90.064zM286.118 731.75h343.16v198.644h-343.16z" fill="#658391" p-id="31248"></path><path d="M51.051 441.468h778.83v87.984H51.052z" fill="#6CCAE0" p-id="31249"></path><path d="M614.938 351.622c0 8.288-17.83 15.006-50.975 15.006-33.15 0-55.5-6.718-55.5-15.006 0-8.285 22.35-15 55.5-15 33.141-0.003 50.975 6.711 50.975 15z" opacity=".23" p-id="31250"></path><path d="M614.938 351.622c0 8.288-17.83 15.006-50.975 15.006-33.15 0-55.5-6.718-55.5-15.006 0-8.285 22.35-15 55.5-15 33.141-0.003 50.975 6.711 50.975 15z" fill="#FFFFFF" fill-opacity=".14" opacity=".23" p-id="31251"></path><path d="M592.66 131.08c-58.064 0-63.336 63.331-63.336 63.331v158.323h67.29V232.673c0-32.985 30.36-38.262 30.36-38.262h111.76V131.08H592.659z" fill="#F0F0F0" p-id="31252"></path><path d="M738.73 185.32v-54.24l-149.304 0.1c-53.52 0-60.114 63.231-60.114 63.231v158.323h56.304V225.778c0-34.876 32.097-40.458 32.097-40.458H738.73z" fill="#EDEDED" p-id="31253"></path><path d="M555.044 207.603v145.13h36.073V229.228c0-33.928 31.222-39.361 31.222-39.361h116.387v-33.057l-138.437 0.048c-26.769 0-45.245 34.25-45.245 50.746z" fill="#DEDEDE" p-id="31254"></path><path d="M580.78 220.794V352.73h15.822V232.673c0-32.985 30.36-38.262 30.36-38.262H738.73v-11.874H611.13c0-0.004-30.35 5.273-30.35 38.257z" fill="#BFBFBF" p-id="31255"></path><path d="M858.317 164.242c63.942 0 116.045-20.284 118.583-45.687 0.076 0.643 0.125 1.285 0.125 1.932 0 26.298-53.16 47.614-118.716 47.614-65.56 0-118.72-21.32-118.72-47.614 0-0.647 0.068-1.293 0.116-1.932 2.55 25.4 54.678 45.687 118.612 45.687z" fill-opacity=".27" p-id="31256"></path><path d="M883.202 930.338c53.61-4.598 93.83-23.692 93.83-46.558V47.618h-93.83v882.72z" fill="#0A0000" fill-opacity=".09" p-id="31257"></path><path d="M70.829 529.452H829.13v56.336H70.829z" fill-opacity=".18" p-id="31258"></path><path d="M739.601 47.618a118.716 47.618 0 1 0 237.432 0 118.716 47.618 0 1 0-237.432 0z" fill="#F0F0F0" p-id="31259"></path><path d="M762.089 46.598a93.923 30.575 0 1 0 187.846 0 93.923 30.575 0 1 0-187.846 0z" fill="#636363" p-id="31260"></path><path d="M286.118 731.75h343.16v28.504h-343.16z" fill-opacity=".28" p-id="31261"></path></svg>