<?xml version="1.0" standalone="no"?><!DOCTYPE svg PUBLIC "-//W3C//DTD SVG 1.1//EN" "http://www.w3.org/Graphics/SVG/1.1/DTD/svg11.dtd"><svg t="1720653849030" class="icon" viewBox="0 0 1024 1024" version="1.1" xmlns="http://www.w3.org/2000/svg" p-id="42313" xmlns:xlink="http://www.w3.org/1999/xlink" width="256" height="256"><path d="M473.222881 466.181331l-36.704494 166.559647s-16.684936 46.640367 10.009779 46.640366c26.694715 0 50.051851-6.660376 50.051851-33.313703 0-26.650371-13.347357-59.961118-13.347357-59.961118l36.704493-89.943155s-1.410119-15.443321-10.855259-27.664357c-13.255714-17.154976-35.859013-17.882207-35.859013-2.31768z" fill="#FDD5D5" p-id="42314"></path><path d="M693.169001 693.81068m11.824901 0l256.156924 0q11.824901 0 11.824901 11.824902l0 215.065391q0 11.824901-11.824901 11.824902l-256.156924 0q-11.824901 0-11.824901-11.824902l0-215.065391q0-11.824901 11.824901-11.824902Z" fill="#326EBC" p-id="42315"></path><path d="M708.600497 707.675377m11.824901 0l225.027871 0q11.824901 0 11.824902 11.824901l0 186.508256q0 11.824901-11.824902 11.824901l-225.027871 0q-11.824901 0-11.824901-11.824901l0-186.508256q0-11.824901 11.824901-11.824901Z" fill="#DEF2FF" p-id="42316"></path><path d="M732.989356 773.687888a26.842526 26.783401 90 1 0 53.566802 0 26.842526 26.783401 90 1 0-53.566802 0Z" fill="#3484F9" p-id="42317"></path><path d="M767.104196 908.030592s43.899946-73.281869 58.533261-68.395229c14.633315 4.88664 29.266631 39.084255 29.266631 39.084255s26.827745-83.052194 48.777718-83.052194c21.949973 0 39.022174 112.363168 39.022174 112.363168h-175.599784z" fill="#3484F9" p-id="42318"></path><path d="M370.76898 72.418031s6.873224 180.977158 98.791138 180.977158c76.131671 0.002956 87.072661-184.755214 71.898356-184.755214-15.171348 0-170.689494 3.778056-170.689494 3.778056z" fill="#FFAA20" p-id="42319"></path><path d="M440.293487 228.967899l9.755543 48.857536-67.972488 14.302218s21.335078 39.175898 96.009329 39.175898c74.674252 0 92.452991-46.297445 92.452991-46.297445l-66.834342-7.180671 4.877772-53.74122-68.288805 4.883684z" fill="#FFAA20" p-id="42320"></path><path d="M411.026856 155.691942s46.773397-30.239229 58.533262-68.395229c2.817283-9.146561 68.288805 58.624904 68.288804 58.624904s39.858786-63.52337 9.755544-102.5958c-35.456966-46.016603-90.439801-48.106655-117.066523-39.081298-17.412167 5.903582-38.484141 17.50381-53.655489 43.967939-15.174305 26.467085-4.877772 122.136449-4.877772 122.136449l39.022174-14.656965z" fill="#311303" p-id="42321"></path><path d="M392.840158 286.747323s-41.440367 0.490733-76.152364 17.14315c-57.377377 27.537239-82.70336 106.968057-76.38295 105.835823l82.92212 4.88664 16.223765-21.267085-6.468221 280.18808h287.788535l-4.877772-254.03731s5.202957-10.96464 9.755543 9.77328c7.094941 32.311543 24.388859 43.964983 24.388859 43.964983s15.076749-29.310974 34.144403-29.310974c17.441729 0 39.022174 4.88664 39.022174 4.886641s0.357703-94.12917-84.190341-152.724513c-40.742697-28.234908-110.92053-23.147244-110.92053-23.147244s-11.789427 50.450941-58.506655 50.450941c-46.714272 0-76.746565-36.642413-76.746566-36.642412z" fill="#3484F9" p-id="42322"></path><path d="M367.12691 62.869423s-31.469019 48.396365-4.877771 146.560783c11.736215 43.326438 24.474589 41.363505 19.511087 58.624904-9.424446 32.746108-48.777718 34.191702-48.777718 34.191702-8.185788 16.111428 131.856518 103.119052 117.066522-43.962027-2.282206-22.686073-44.712908-19.546562-48.777717-87.935878-2.610347-43.923596-4.877772-58.624904-4.877772-58.624904s-11.381467-100.963963-29.266631-48.85458zM557.36001 67.756063s48.777718 63.508589 19.511087 161.211836c-2.311768 7.712792-7.378738 17.116545-9.755544 24.42729-6.234679 19.185902 39.022174 43.967939 39.022174 43.967939-8.963275 37.28687-117.16999 104.174424-106.172832-43.595455 1.690961-22.736329 26.50256-39.456739 28.128484-83.418766 1.625924-43.970895 0-53.74122 0-53.74122s-5.690734-108.292446 29.266631-48.851624z" fill="#311303" p-id="42323"></path><path d="M753.328186 560.24842c11.452417 40.866859 13.77601 98.628545 13.77601 98.628546-1.498806 0.354747 55.952477 78.972603-14.633315 73.281869-13.010348-1.04946-27.596363-22.139171-24.388859-29.310974 6.657419-14.893463-38.948269 12.040706-14.633316-29.31393 14.724958-25.045141-14.633315-102.589887-14.633315-102.589887l-53.65549-122.133493s10.358614-11.053326 28.509837-16.977602c8.416373-2.74929 18.508927-0.558727 30.023425-2.563048 8.283343-1.445594 34.339513 76.388862 49.635023 130.978519z" fill="#FFAA20" p-id="42324"></path><path d="M50.101307 390.147216m29.562253 0l521.300773 0q29.562253 0 29.562253 29.562253l0 375.736238q0 29.562253-29.562253 29.562253l-521.300773 0q-29.562253 0-29.562253-29.562253l0-375.736238q0-29.562253 29.562253-29.562253Z" fill="#326EBC" p-id="42325"></path><path d="M74.194544 416.014187m11.824901 0l510.24449 0q11.824901 0 11.824901 11.824901l0 363.615715q0 11.824901-11.824901 11.824901l-510.24449 0q-11.824901 0-11.824901-11.824901l0-363.615715q0-11.824901 11.824901-11.824901Z" fill="#DEF2FF" p-id="42326"></path><path d="M84.275272 434.135848H250.829006v168.120534H84.275272z" fill="#FFFFFF" p-id="42327"></path><path d="M289.082562 468.309813m5.912451 0l256.452546 0q5.912451 0 5.912451 5.912451l0 7.774872q0 5.912451-5.912451 5.912451l-256.452546 0q-5.912451 0-5.912451-5.912451l0-7.774872q0-5.912451 5.912451-5.912451Z" fill="#3484F9" p-id="42328"></path><path d="M289.082562 522.083552m5.912451 0l100.422974 0q5.912451 0 5.91245 5.91245l0 7.745311q0 5.912451-5.91245 5.91245l-100.422974 0q-5.912451 0-5.912451-5.91245l0-7.745311q0-5.912451 5.912451-5.91245Z" fill="#3484F9" p-id="42329"></path><path d="M294.995013 678.482652h256.452546a5.912451 5.912451 0 0 1 5.912451 5.912451v7.668448a5.912451 5.912451 0 0 1-5.912451 5.912451H294.995013a5.912451 5.912451 0 0 1-5.912451-5.912451v-7.668448a5.912451 5.912451 0 0 1 5.912451-5.912451zM294.995013 732.155879h100.420017a5.912451 5.912451 0 0 1 5.912451 5.912451v7.668448a5.912451 5.912451 0 0 1-5.912451 5.912451H294.995013a5.912451 5.912451 0 0 1-5.912451-5.912451v-7.668448a5.912451 5.912451 0 0 1 5.912451-5.912451z" fill="#FFFFFF" p-id="42330"></path><path d="M88.325301 627.591233h166.671983v168.120534H88.325301z" fill="#FFFFFF" p-id="42331"></path><path d="M123.238322 707.001358l2.276293 69.781698s20.31518 4.227402 43.737354 4.227402c24.125755 0 40.973283-4.227402 40.973283-4.227402l0.812961-74.009101s-5.64639-8.383855-20.649233 0c-15.020581 8.392724-28.536443 11.62979-42.274022 2.116658-9.832405-6.811143-19.242071-4.936896-24.876636 2.110745z" fill="#3484F9" p-id="42332"></path><path d="M145.424793 724.584986m-7.582718 0a7.582718 7.582718 0 1 0 15.165435 0 7.582718 7.582718 0 1 0-15.165435 0Z" fill="#DEF2FF" p-id="42333"></path><path d="M151.656516 761.472765s12.404321-19.398751 16.543036-18.103923c4.132803 1.29187 8.268562 10.340876 8.268563 10.340876s7.582718-21.982491 13.784878-21.982492c6.205117 0 11.029677 29.745539 11.029677 29.745539H151.656516z" fill="#DEF2FF" p-id="42334"></path><path d="M133.31905 715.462075s19.02331-76.128714 31.705516-76.128715 35.932919 76.128714 35.932919 76.128715l-6.341103 2.116657s-23.250712-69.784655-29.591816-71.8954c-6.341103-2.116657-25.364413 71.8954-25.364413 71.8954l-6.341103-2.116657z" fill="#311303" p-id="42335"></path><path d="M150.831729 448.825332s9.959523 13.985902 19.919046 8.954406c9.959523-5.040364 8.853895-8.954406 8.853895-8.954406s35.412623 10.633542 39.841048 14.547585c4.425469 3.916999 11.065151 40.284482 11.065152 40.284482s-4.517112 4.789085-9.959523 6.716544c-5.619784 1.98954-12.173736 1.117453-12.173736 1.117453l-3.319841-13.427175 1.108584 90.640824s-25.456056 6.713588-40.949633 6.713588-40.946677-6.713588-40.946677-6.713588l3.319841-89.523371-4.425469 16.785447s-9.992042-0.221717-16.602161-4.475725c-5.454236-3.509039-7.74531-11.186357-7.745311-11.186356s9.959523-31.333032 15.493577-36.932123c5.534054-5.593178 36.521208-14.547585 36.521208-14.547585z" fill="#3484F9" p-id="42336"></path><path d="M145.424793 514.545177m-7.582718 0a7.582718 7.582718 0 1 0 15.165435 0 7.582718 7.582718 0 1 0-15.165435 0Z" fill="#DEF2FF" p-id="42337"></path><path d="M151.656516 551.397482s12.404321-19.392838 16.543036-18.100968c4.132803 1.294827 8.268562 10.346789 8.268563 10.346789s7.582718-21.985448 13.784878-21.985448c6.205117 0 11.029677 29.739627 11.029677 29.739627H151.656516z" fill="#DEF2FF" p-id="42338"></path><path d="M258.781252 820.662309h170.722013v70.476411H258.781252z" fill="#326EBC" p-id="42339"></path><path d="M176.098586 887.635593H512.277573a15.059012 15.059012 0 0 1 15.059012 15.059012v19.584993a15.059012 15.059012 0 0 1-15.059012 15.056055H176.098586a15.059012 15.059012 0 0 1-15.059011-15.056055v-19.584993a15.059012 15.059012 0 0 1 15.059011-15.059012z" fill="#326EBC" p-id="42340"></path><path d="M513.087579 741.488682s167.748049-24.037068 169.991825 14.287437c2.246731 38.327461-26.937125 39.27641-26.937125 75.342359 0 13.382832 35.740764 18.296078 48.963959 49.259582 22.422969 52.508474 28.3975 131.504727-55.068565 140.012744-72.749749 7.420126-169.8854 11.1834-168.951233-72.344746 0.934167-83.412854 55.523824-101.635026 58.326326-110.160781 13.344401-40.618536-59.996593-64.83889-26.325187-96.396595z" fill="#FFAA20" p-id="42341"></path><path d="M587.525333 969.860044h22.999433v-18.893236h24.678569v-11.127232h-24.678569v-7.763048h24.678569v-11.130188h-20.155545l29.973169-47.879025-26.614897-3.562252-9.560432 25.302333c-4.523025 10.222627-5.944969 13.586812-9.173167 20.44821h-0.777488c-3.098124-6.861399-4.262877-9.708244-9.173167-20.44821l-9.817624-28.861628-27.132236 7.121547 29.973168 47.879025h-20.155544v11.130188h24.935761v7.763048h-24.935761v11.127232h24.935761v18.893236z" fill="#EE8100" p-id="42342"></path><path d="M422.482229 953.964421c30.407734 0 55.059697 10.382263 55.059697 23.188631 0 12.806368-24.651963 23.188631-55.059697 23.188632s-55.059697-10.382263-55.059696-23.188632c0-12.806368 24.651963-23.188631 55.059696-23.188631z" fill="#FFAA20" p-id="42343"></path><path d="M422.482229 948.238212c30.407734 0 55.059697 10.320183 55.059697 23.049689 0 12.729506-24.651963 23.049689-55.059697 23.049689s-55.059697-10.320183-55.059696-23.049689c0-12.729506 24.651963-23.049689 55.059696-23.049689z" fill="#EE8100" p-id="42344"></path><path d="M422.482229 926.619337c30.407734 0 55.059697 10.36157 55.059697 23.144288 0 12.779762-24.651963 23.141332-55.059697 23.141331s-55.059697-10.36157-55.059696-23.141331c0-12.782718 24.651963-23.144288 55.059696-23.144288z" fill="#FFAA20" p-id="42345"></path><path d="M422.482229 908.976584c30.407734 0 55.059697 10.317226 55.059697 23.049689 0 12.729506-24.651963 23.046733-55.059697 23.046732s-55.059697-10.317226-55.059696-23.046732c0-12.732462 24.651963-23.049689 55.059696-23.049689z" fill="#EE8100" p-id="42346"></path><path d="M422.482229 887.635593c30.407734 0 55.059697 10.320183 55.059697 23.049689 0 12.729506-24.651963 23.049689-55.059697 23.049689s-55.059697-10.320183-55.059696-23.049689c0-12.729506 24.651963-23.049689 55.059696-23.049689zM287.282221 953.964421c30.484595 0 55.195683 10.382263 55.195683 23.188631 0 12.806368-24.711087 23.188631-55.195683 23.188632-30.487552 0-55.198639-10.382263-55.198639-23.188632 0-12.806368 24.711087-23.188631 55.198639-23.188631z" fill="#FFAA20" p-id="42347"></path><path d="M287.282221 948.238212c30.484595 0 55.195683 10.320183 55.195683 23.049689 0 12.729506-24.711087 23.049689-55.195683 23.049689-30.487552 0-55.198639-10.320183-55.198639-23.049689 0-12.729506 24.711087-23.049689 55.198639-23.049689z" fill="#EE8100" p-id="42348"></path><path d="M232.086538 949.760668a55.192727 23.147244 0 1 0 110.385453 0 55.192727 23.147244 0 1 0-110.385453 0Z" fill="#FFAA20" p-id="42349"></path><path d="M232.086538 932.023316a55.192727 23.058557 0 1 0 110.385453 0 55.192727 23.058557 0 1 0-110.385453 0Z" fill="#EE8100" p-id="42350"></path><path d="M287.282221 887.635593c30.484595 0 55.195683 10.320183 55.195683 23.049689 0 12.729506-24.711087 23.049689-55.195683 23.049689-30.487552 0-55.198639-10.320183-55.198639-23.049689 0-12.729506 24.711087-23.049689 55.198639-23.049689z" fill="#FFAA20" p-id="42351"></path><path d="M287.282221 873.223995c30.484595 0 55.195683 10.340876 55.195683 23.094032 0 12.756112-24.711087 23.096988-55.195683 23.096988-30.487552 0-55.198639-10.340876-55.198639-23.096988 0-12.753156 24.711087-23.094032 55.198639-23.094032z" fill="#EE8100" p-id="42352"></path><path d="M232.086538 875.027292a55.192727 23.058557 0 1 0 110.385453 0 55.192727 23.058557 0 1 0-110.385453 0Z" fill="#FFAA20" p-id="42353"></path></svg>